<svg xmlns="http://www.w3.org/2000/svg" xmlns:xlink="http://www.w3.org/1999/xlink"><symbol viewBox="0 0 220 243.233" id="accelerate"><defs><clipPath id="aaa"><path fill="none" d="M0 0h220v243.233H0z"/></clipPath></defs><title>Artboard 1</title><g clip-path="url(#aaa)"><path fill="none" stroke="#0d3d59" stroke-linecap="round" stroke-linejoin="round" stroke-width="3" d="M153.007 45.119h-48.545V1.5l48.545 43.619z"/></g><path d="M28.103 153.642h29.42m-29.42-44.212h47.885M28.103 65.218h97.07" fill="none" stroke="#0d3d59" stroke-linecap="round" stroke-linejoin="round" stroke-width="3"/><g clip-path="url(#aaa)"><path d="M153.007 44.944v62.96m-61.854 99.674H4.296a2.798 2.798 0 0 1-2.796-2.785V4.285A2.798 2.798 0 0 1 4.296 1.5h100.576" fill="none" stroke="#0d3d59" stroke-linecap="round" stroke-linejoin="round" stroke-width="3"/><path d="M163.327 174.578a12.499 12.499 0 1 0-12.498 12.404 12.452 12.452 0 0 0 12.498-12.404" fill="#0d3d59"/><ellipse cx="150.829" cy="174.578" rx="12.498" ry="12.404" fill="none" stroke="#0d3d59" stroke-miterlimit="10" stroke-width="3"/></g><path d="M104.987 175.76h9.162m4.611-33.006l5.784 5.736m27.468-19.408v9.095" fill="none" stroke="#f5871f" stroke-linecap="round" stroke-miterlimit="10" stroke-width="3"/><g clip-path="url(#aaa)" fill="none" stroke-linecap="round" stroke-miterlimit="10" stroke-width="3"><path d="M173.286 146.532a38.273 38.273 0 0 1 13.703 29.229m9.682 0h-9.682" stroke="#0d3d59"/><path d="M113.689 175.76a38.075 38.075 0 0 1 42.877-37.74" stroke="#f5871f"/></g><path fill="none" stroke="#0d3d59" stroke-linecap="round" stroke-miterlimit="10" stroke-width="3" d="M183.591 142.061l-7.823 7.775M151.261 171.433l14.26-28.306M122.692 205.391h32.89m11.626 0h11.759"/><path fill="#0d3d59" d="M175.245 149.883l-21.815-10.259 1.853-.717 14.017-5.428 5.125 14.142.82 2.262z"/><path fill="none" stroke="#0d3d59" stroke-linecap="round" stroke-linejoin="round" stroke-width="3" d="M175.245 149.883l-21.815-10.259 1.853-.717 14.017-5.428 5.125 14.142.82 2.262z"/><g clip-path="url(#aaa)"><ellipse cx="150.829" cy="174.578" rx="67.671" ry="67.155" fill="none" stroke="#0d3d59" stroke-linecap="round" stroke-miterlimit="10" stroke-width="3"/></g></symbol><symbol viewBox="0 0 245.63089 105.16019" id="agile-delivery"><title>agile-delivery</title><circle cx="21.532" cy="83.629" r="19.532" fill="none" stroke="#0e3c58" stroke-linecap="round" stroke-linejoin="round" stroke-width="4"/><circle cx="170.435" cy="83.629" r="19.532" fill="none" stroke="#0e3c58" stroke-linecap="round" stroke-linejoin="round" stroke-width="4"/><circle cx="95.983" cy="21.532" r="19.532" fill="none" stroke="#0e3c58" stroke-linecap="round" stroke-linejoin="round" stroke-width="4"/><path fill="none" stroke="#0e3c58" stroke-linecap="round" stroke-linejoin="round" stroke-width="4" d="M110.982 34.042l44.45 37.074M36.53 71.119l44.454-37.077M234.896 73.506l8.735 10.305M243.631 83.811l-8.758 9.94M243.631 83.811h-38.665M88.126 24.774l4.24 4.074 11.474-14.633M13.674 86.871l4.241 4.074 11.474-14.633"/></symbol><symbol viewBox="0 0 213.52 278.44501" id="apprenticeships"><defs><clipPath id="aca"><path fill="none" d="M0 0h213.52v278.445H0z"/></clipPath></defs><title>apprenticeships</title><g clip-path="url(#aca)" fill="none" stroke-linecap="round" stroke-linejoin="round" stroke-width="3"><path d="M88.902 88.927l18.71-21.538m18.71 21.538l-18.71-21.538M68.03 11.702h79.163v45.485H68.03zm89.378 55.687H57.816V1.5h99.592zm32.377 87.932l-5.092 13.074m0-118.76a27.31 27.31 0 0 1 27.327 27.294v64.076a27.31 27.31 0 0 1-27.327 27.294l7.248 10.92M23.735 73.534l5.091-13.074m0 118.759A27.309 27.309 0 0 1 1.5 151.926V87.849a27.31 27.31 0 0 1 27.326-27.293l-7.247-10.921m145.824 178.681H47.472m82.285 39.298H84.841l2.156-18.662h40.604zm45.993 9.331H38.848l8.624-56.524h118.576zM56.316 161.963h100.888v49.624H56.316zm109.732 58.458H47.472V153.13h118.576z" stroke="#0d3d59"/><path d="M93.317 34.162v15.767m0-31.318v16.244l15.311-5.43m.932 5.43a16.244 16.244 0 1 0-16.243 16.243 16.244 16.244 0 0 0 16.243-16.243z" stroke="#f29100"/></g><path d="M122.61 107.33v17.294m.483-17.775h17.34m-16.86.481l21.918 21.857m-79.62 0h17.34m-17.821-.48v-17.294m.48 16.814l21.917-21.858m29.115-66.862h7.674m8.53 0h4.934m-21.138-10.273h21.138" fill="none" stroke="#0d3d59" stroke-linecap="round" stroke-linejoin="round" stroke-width="3"/><path fill="none" stroke="#009ee3" stroke-linecap="round" stroke-linejoin="round" stroke-width="3" d="M79.027 192.671h57.194"/><g clip-path="url(#aca)"><path d="M112.16 179.357a6.048 6.048 0 1 0-6.048 6.048 6.048 6.048 0 0 0 6.048-6.048" fill="#d9d9d9"/></g></symbol><symbol viewBox="0 0 512 512" id="arrow-down-circle"><path d="M0 256c0 141.406 114.609 256 256 256 141.391 0 256-114.594 256-256C512 114.625 397.391 0 256 0 114.609 0 0 114.625 0 256zm472 0c0 119.312-96.703 216-216 216S40 375.312 40 256c0-119.281 96.703-216 216-216s216 96.719 216 216z"/><path d="M239.961 128v198.406L198.836 288l-22.844 21.344 80 74.656 80.016-74.656L313.102 288l-41.141 38.406V128z"/></symbol><symbol viewBox="0 0 268.832 268.832" id="arrow-right"><path d="M265.171 125.577l-80-80c-4.881-4.881-12.797-4.881-17.678 0-4.882 4.882-4.882 12.796 0 17.678l58.661 58.661H12.5c-6.903 0-12.5 5.597-12.5 12.5 0 6.902 5.597 12.5 12.5 12.5h213.654l-58.659 58.661c-4.882 4.882-4.882 12.796 0 17.678 2.44 2.439 5.64 3.661 8.839 3.661s6.398-1.222 8.839-3.661l79.998-80c4.882-4.882 4.882-12.796 0-17.678z"/></symbol><symbol viewBox="0 0 7.00378 9.8053" id="bullet"><title>bullet</title><path d="M0 0h7.004v9.805H0zm.7 8.475l2.382-3.572L.7 1.33zM5.883.7H1.121L3.5 4.272zm0 8.405L3.502 5.533 1.12 9.105zm.42-.63V1.33l-2.38 3.572z" fill="#008fd0"/></symbol><symbol viewBox="0 0 208.39784 161.77653" id="call"><title>call</title><path d="M146.098 113.616v3.21a34.977 34.977 0 0 1-34.867 34.885M76.346 78.749v-1.606a34.876 34.876 0 0 1 69.752 0v1.606" fill="none" stroke="#0e3c58" stroke-linecap="round" stroke-linejoin="round" stroke-width="4"/><path d="M163.54 96.191a17.44 17.44 0 0 1-17.442 17.425V78.749A17.444 17.444 0 0 1 163.54 96.19zM76.346 78.749v34.867a17.433 17.433 0 0 1 0-34.867z" fill="none" stroke="#0e3c58" stroke-linecap="round" stroke-linejoin="round" stroke-width="4"/><ellipse cx="111.222" cy="150.503" rx="14.713" ry="11.274" fill="#0e3c58"/><path d="M202.398 2h-57.634a4.012 4.012 0 0 0-4 4v33.295a4.012 4.012 0 0 0 4 4h11.134v13l16.572-13h29.928a4.012 4.012 0 0 0 4-4V6a4.012 4.012 0 0 0-4-4zM6 21.93h57.633a4.012 4.012 0 0 1 4 4v33.294a4.012 4.012 0 0 1-4 4H52.5v13l-16.573-13H6a4.012 4.012 0 0 1-4-4V25.929a4.012 4.012 0 0 1 4-4z" fill="none" stroke="#0e3c58" stroke-linecap="round" stroke-linejoin="round" stroke-width="4"/></symbol><symbol viewBox="0 0 343.121 429.10001" id="capabilities-home"><defs><clipPath id="aha"><path fill="none" d="M0 0h343.121v429.1H0z"/></clipPath></defs><title>capabilities-home</title><path fill="#ddddde" d="M57.945 198.045h219v124h-219zM56.945 337.045l-14 89h251.126l-15.126-89h-222z"/><path fill="#ababac" d="M210.395 410.304h-83.057l3.987-34.593h75.083l3.987 34.593z"/><path fill="#cce9f6" d="M74.838 214.786h184.524v89.768H74.838z"/><g clip-path="url(#aha)"><path d="M280.011 337.458H58.235m152.16 72.845h-83.057l3.987-34.593h75.083zm85.05 17.297H42.288l15.947-104.778h219.27zM74.59 214.461h186.561v91.987H74.59zm202.915 108.361H58.235V198.086h219.27z" fill="none" stroke="#0d3d59" stroke-linecap="round" stroke-linejoin="round" stroke-width="3"/></g><path fill="none" stroke="#99d2ec" stroke-linecap="round" stroke-linejoin="round" stroke-width="3" d="M165.623 278.911l19.955-2.468M162.632 250.799l24.72 6.757"/><g clip-path="url(#aha)" fill="none" stroke="#008fd0" stroke-linecap="round" stroke-linejoin="round" stroke-width="3"><path d="M152.778 251.862a12.838 12.838 0 1 0-.002 18.154 12.836 12.836 0 0 0 .002-18.154zm2.746-10.754l-1.037 1.037a.76.76 0 0 1-.898.128 20.927 20.927 0 0 0-3.679-1.522.761.761 0 0 1-.544-.726v-1.467a5.663 5.663 0 1 0-11.326 0v1.468a.761.761 0 0 1-.545.726 21.07 21.07 0 0 0-3.679 1.523.76.76 0 0 1-.898-.128l-1.037-1.037a5.664 5.664 0 0 0-8.01 8.01l1.037 1.037a.763.763 0 0 1 .128.899 20.954 20.954 0 0 0-1.523 3.678.76.76 0 0 1-.726.545h-1.467a5.663 5.663 0 1 0-.001 11.327l1.466-.001a.76.76 0 0 1 .726.545 21.03 21.03 0 0 0 1.523 3.678.763.763 0 0 1-.129.899l-1.037 1.037a5.68 5.68 0 0 0 0 8.008 5.68 5.68 0 0 0 8.009 0l1.037-1.037a.761.761 0 0 1 .899-.128 21.018 21.018 0 0 0 3.677 1.522.759.759 0 0 1 .545.726v1.467a5.663 5.663 0 0 0 11.326-.001v-1.467a.761.761 0 0 1 .545-.726 21.035 21.035 0 0 0 3.678-1.524.763.763 0 0 1 .899.128l1.037 1.037a5.664 5.664 0 0 0 8.01-8.01l-1.037-1.037a.76.76 0 0 1-.128-.898 21.008 21.008 0 0 0 1.523-3.68.761.761 0 0 1 .726-.543h1.467a5.682 5.682 0 0 0 5.664-5.664v-.001a5.679 5.679 0 0 0-5.663-5.662h-1.466a.761.761 0 0 1-.727-.544 20.913 20.913 0 0 0-1.521-3.678.761.761 0 0 1 .128-.9l1.036-1.036a5.663 5.663 0 1 0-8.008-8.008zM205.12 265.068a8.141 8.141 0 1 0 0 11.513 8.14 8.14 0 0 0 0-11.513zm1.742-6.82l-.657.658a.483.483 0 0 1-.57.082 13.18 13.18 0 0 0-2.333-.965.483.483 0 0 1-.345-.461v-.93a3.591 3.591 0 1 0-7.183 0v.93a.482.482 0 0 1-.345.46 13.414 13.414 0 0 0-2.333.967.483.483 0 0 1-.57-.081l-.657-.657a3.591 3.591 0 1 0-5.08 5.079l.658.657a.483.483 0 0 1 .08.57 13.413 13.413 0 0 0-.965 2.333.48.48 0 0 1-.46.345h-.93a3.591 3.591 0 1 0-.001 7.183h.93a.48.48 0 0 1 .46.345 13.372 13.372 0 0 0 .966 2.332.485.485 0 0 1-.082.57l-.657.658a3.602 3.602 0 0 0-.001 5.079 3.601 3.601 0 0 0 5.079-.001l.658-.657a.483.483 0 0 1 .57-.082 13.22 13.22 0 0 0 2.332.966.48.48 0 0 1 .345.46v.93a3.591 3.591 0 0 0 7.183 0v-.931a.482.482 0 0 1 .345-.46 13.336 13.336 0 0 0 2.333-.966.483.483 0 0 1 .57.08l.657.658a3.592 3.592 0 0 0 5.08-5.08l-.658-.656a.483.483 0 0 1-.081-.57 13.26 13.26 0 0 0 .966-2.333.482.482 0 0 1 .46-.345h.93a3.591 3.591 0 1 0 0-7.183h-.93a.48.48 0 0 1-.46-.345 13.29 13.29 0 0 0-.964-2.332.483.483 0 0 1 .08-.57l.658-.658a3.59 3.59 0 1 0-5.078-5.078z"/></g><path fill="#ddddde" d="M102.283 153.307h128.688v12.256H102.283z"/><g clip-path="url(#aha)" fill="none" stroke-linecap="round" stroke-linejoin="round" stroke-width="3"><path d="M233.091 164.544H101.8v-10.04h131.291zm-56.843-47.316a8.803 8.803 0 1 0-8.803 8.797 8.8 8.8 0 0 0 8.803-8.797zm56.843 37.277H101.8V79.951h131.291zM85.445 269.545v-36s0-9 9-9" stroke="#0d3d59"/><path d="M161.363 19.741l-14.673 23.88m-7.368-42.12l22.041 18.24m-2.977-.078C66.311 25.295-3.789 104.114 1.813 195.711a164.797 164.797 0 0 0 21.415 71.915" stroke="#f5871f"/><path d="M313.323 264.514l-11.915-27.642m40.213 25.911l-28.298 1.731m-.038-.753a164.58 164.58 0 0 0 19.433-88.455c-5.194-84.933-73.749-151.028-157.223-155.724" stroke="#008fd0"/></g><path fill="none" stroke="#0d3d59" stroke-linecap="round" stroke-linejoin="round" stroke-width="3" d="M20.863 301.045h34.499M278.945 301.045h34.5"/></symbol><symbol viewBox="0 0 1792 1792" id="chevron-down"><path d="M1683 808l-742 741q-19 19-45 19t-45-19L109 808q-19-19-19-45.5t19-45.5l166-165q19-19 45-19t45 19l531 531 531-531q19-19 45-19t45 19l166 165q19 19 19 45.5t-19 45.5z"/></symbol><symbol viewBox="0 0 290.772 187.06" id="commercial"><defs><clipPath id="aja"><path fill="none" d="M0 0h290.772v187.06H0z"/></clipPath></defs><title>commercial</title><path fill="#f5871f" d="M20.181 21.442h17.611v17.87H20.181zM221.932 21.442h17.611v17.87h-17.611zM168.322 97.066h17.611v17.87h-17.611zM252.233 124.26h17.611v17.87h-17.611zM106.683 124.001h17.611v17.87h-17.611z"/><g clip-path="url(#aja)"><path d="M37.699 159.649h-17.67m8.835-8.836v17.671m68.648-8.835H81.874m8.836-8.836v17.671m-53.011-35.101h-17.67m8.835-8.835v17.67m39.758-8.835H50.951m8.836-8.835v17.67m37.725-8.835H81.874m8.836-8.835v17.67m-53.011-34.507h-17.67m8.835-8.835v17.67m39.758-8.835H50.951m8.836-8.835v17.67m37.725-8.835H81.874m8.836-8.835v17.67M37.699 82.451h-17.67m8.835-8.835v17.671m39.758-8.836H50.951m8.836-8.835v17.671m37.725-8.836H81.874m8.836-8.835v17.671m-53.011-34.92h-17.67m8.835-8.835v17.67m39.758-8.835H50.951m8.836-8.835v17.67m30.923-8.835h-8.836m8.836-8.835v17.67m-53.011-34.92h-17.67m8.835-8.835v17.67m39.758-8.835H50.951m8.836-8.835v17.67m39.758-8.835H81.874m8.836-8.835v17.67m32.992 120.532h-17.67m8.835-8.836v17.671m70.681-8.835h-17.67m8.835-8.836v17.671m-53.011-35.761h-17.67m8.835-8.836v17.671m39.758-8.835h-17.67m8.835-8.836v17.671m39.758-8.835h-17.67m8.835-8.836v17.671m-53.011-34.92h-17.67m8.835-8.835v17.67m39.758-8.835h-17.67m8.835-8.835v17.67m39.758-8.835h-17.67m8.835-8.835v17.67m-53.011-34.92h-17.67m8.835-8.835v17.67m39.758-8.835h-17.67m8.835-8.835v17.67m39.758-8.835h-17.67m8.835-8.835v17.67m32.185 70.261h-14.83m5.995-8.836v17.671m70.681-8.835h-17.67m8.835-8.836v17.671m-53.011-35.101h-14.83m5.995-8.835v17.67m39.758-8.835h-17.67m8.835-8.835v17.67m39.758-8.835h-17.67m8.835-8.835v17.67m-53.011-34.507h-14.83m5.995-8.835v17.67m39.758-8.835h-17.67m8.835-8.835v17.67m39.758-8.835h-17.67m8.835-8.835v17.67m-53.011-34.095h-14.83m5.995-8.835v17.671m39.758-8.836h-17.67m8.835-8.835v17.671m39.758-8.836h-17.67m8.835-8.835v17.671m-53.011-34.92h-8.835m0-8.835v17.67m39.758-8.835h-17.67m8.835-8.835v17.67m39.758-8.835h-17.67m8.835-8.835v17.67m-53.011-34.92h-17.67m8.835-8.835v17.67m39.758-8.835h-17.67m8.835-8.835v17.67m39.758-8.835h-17.67m8.835-8.835v17.67m27.363 146.443H1.5M285.259 8.863H176.713V1.5h108.546zm-76.361 12.584h-17.67v17.67h17.67zm30.923 0h-17.67v17.67h17.67zm30.923 0h-17.67v17.67h17.67zm-76.677 43.755h14.831v-17.67h-17.67v4.239m48.593-4.239h-17.67v17.67h17.67zm30.923 0h-17.67v17.67h17.67zm-61.846 77.016h-14.83v17.67h14.83zm30.923 0h-17.67v17.67h17.67zm30.923 0h-17.67v17.67h17.67zm-61.846-25.672h-14.83v17.67h14.83zm30.923 0h-17.67v17.67h17.67zm30.923 0h-17.67v17.67h17.67zm-61.846-25.26h-14.83v17.67h14.83zm30.923 0h-17.67v17.67h17.67zm30.923 0h-17.67v17.67h17.67zm-61.846 77.197h-14.83v17.67h14.83zm61.846 0h-17.67v17.67h17.67zm-26.19 34.747h-27.136v-35.341h27.136zM182.708 51.771V8.863h96.555V185.56h-85.195M5.514 8.863H114.06V1.5H5.514zm76.36 12.584h17.67v17.67h-17.67zm-30.923 0h17.67v17.67h-17.67zm-30.922 0h17.67v17.67h-17.67zm76.676 43.755H81.874v-17.67h17.671v4.239m-48.594-4.239h17.67v17.67h-17.67zm-30.922 0h17.67v17.67h-17.67zm61.845 77.016h14.83v17.67h-14.83zm-30.923 0h17.67v17.67h-17.67zm-30.922 0h17.67v17.67h-17.67zm61.845-25.672h14.83v17.67h-14.83zm-30.923 0h17.67v17.67h-17.67zm-30.922 0h17.67v17.67h-17.67zm61.845-25.26h14.83v17.67h-14.83zm-30.923 0h17.67v17.67h-17.67zm-30.922 0h17.67v17.67h-17.67zm61.845 77.197h14.83v17.67h-14.83zm-61.845 0h17.67v17.67h-17.67zm26.189 34.747h27.137v-35.341H46.218zm61.846-133.789V8.863H11.509V185.56h85.196M200.063 59.134H91.517v-7.363h108.546zm-76.361 12.584h-17.67v17.67h17.67zm30.923 0h-17.67v17.67h17.67zm30.923 0h-17.67v17.67h17.67zm-61.846 26.085h-17.67v17.67h17.67zm30.923 0h-17.67v17.67h17.67zm30.923 0h-17.67v17.67h17.67zm-61.846 26.084h-17.67v17.67h17.67zm30.923 0h-17.67v17.67h17.67zm30.923 0h-17.67v17.67h17.67zm-61.846 26.926h-17.67v17.67h17.67zm61.846 0h-17.67v17.67h17.67zm-26.19 34.747h-27.136v-35.341h27.136zm34.71 0H97.513V59.134h96.555z" fill="none" stroke="#0d3d59" stroke-linecap="round" stroke-linejoin="round" stroke-width="3"/></g><path d="M222.15 155.586h17.04v25.874m-102.323-25.874h17.039v25.874M50.952 155.586H67.99v25.874" fill="none" stroke="#009ee3" stroke-linecap="round" stroke-linejoin="round" stroke-width="2"/><path d="M81.875 174.098v6.31h15.638m96.555 0h14.83v-6.31m44.176 0v6.31h17.67v-6.31m-102.866 0v6.31h17.67v-6.31m-79.516 0v6.31h17.67v-6.31m-103.673 0v6.31h17.67v-6.31" fill="none" stroke="#0d3d59" stroke-linecap="round" stroke-linejoin="round" stroke-width="3"/><path d="M191.228 17.59v-4.418h79.516v4.418m-250.715 0v-4.418h79.516v4.418m6.487 50.276v-4.418h79.516v4.418" fill="none" stroke="#009ee3" stroke-linecap="round" stroke-linejoin="round" stroke-width="2"/></symbol><symbol viewBox="0 0 178.3206 149.72359" id="competitive-rates"><title>competitive-rates</title><path d="M123.378 147.724H58.552c0-15.137 14.512-26 32.41-26 17.904 0 32.416 11.504 32.416 26zM96.465 122.161V32.417M85.465 30.25v91.911" fill="none" stroke="#0e3c58" stroke-linecap="round" stroke-linejoin="round" stroke-width="4"/><rect x="4.132" y="20.583" width="173.667" height="9.667" rx="2.984" ry="2.984" transform="rotate(12.111 90.965 25.417)" fill="none" stroke="#0e3c58" stroke-linecap="round" stroke-linejoin="round" stroke-width="4"/><path d="M105.654 23v-6.102a14.9 14.9 0 0 0-29.378-3.52l-.916 3.747M129.47 88h45.33M149.39 51.05L134.467 88c0 5.799 7.91 12.5 17.667 12.5s17.667-6.701 17.667-12.5l-14.9-36.896" fill="none" stroke="#0e3c58" stroke-linecap="round" stroke-linejoin="round" stroke-width="4"/><path fill="none" stroke="#0e3c58" stroke-linecap="round" stroke-linejoin="round" stroke-width="4" d="M146.885 78.583h10.5V88h-10.5zM2 64.722h45.33M22.262 23.275L6.998 64.722c0 5.8 7.91 12.5 17.667 12.5s17.667-6.7 17.667-12.5L27.4 24.176"/><path fill="none" stroke="#0e3c58" stroke-linecap="round" stroke-linejoin="round" stroke-width="4" d="M19.415 49.722h10.5v15h-10.5zM18.565 16.75a7.113 7.113 0 0 0 13.999 1.78M145.971 42.164a7.113 7.113 0 1 0 13.688 3.847M145.687 147.724H36.242"/></symbol><symbol viewBox="0 0 164.37105 142.71271" id="continuous-delivery"><title>continuous-delivery</title><path d="M108.111 115.784A64.502 64.502 0 1 0 66.5 131M66.5 131h93M155.077 120.648l7.294 11.371M162.371 132.019l-9.996 8.694" fill="none" stroke="#0e3c58" stroke-linecap="round" stroke-linejoin="round" stroke-width="4"/></symbol><symbol viewBox="0 0 348.333 348.334" id="cross"><path d="M336.559 68.611L231.016 174.165l105.543 105.549c15.699 15.705 15.699 41.145 0 56.85-7.844 7.844-18.128 11.769-28.407 11.769-10.296 0-20.581-3.919-28.419-11.769L174.167 231.003 68.609 336.563c-7.843 7.844-18.128 11.769-28.416 11.769-10.285 0-20.563-3.919-28.413-11.769-15.699-15.698-15.699-41.139 0-56.85l105.54-105.549L11.774 68.611c-15.699-15.699-15.699-41.145 0-56.844 15.696-15.687 41.127-15.687 56.829 0l105.563 105.554L279.721 11.767c15.705-15.687 41.139-15.687 56.832 0 15.705 15.699 15.705 41.145.006 56.844z"/></symbol><symbol viewBox="0 0 5 408" id="dotted-line"><defs><clipPath id="ana"><path fill="none" d="M0 0h5v408H0z"/></clipPath></defs><title>dotted-line</title><path fill="none" stroke="#565759" stroke-linecap="round" stroke-linejoin="round" stroke-dasharray="0 2.005" d="M2.5 2.505v399.993"/><g clip-path="url(#ana)" fill="none" stroke="#565759"><path d="M2.5.5" stroke-linecap="round" stroke-linejoin="round"/><path d="M.25.5h4.5"/><circle cx="2.5" cy="405.5" r="2"/></g></symbol><symbol viewBox="0 0 74.932 246.599" id="education"><defs><clipPath id="aoa"><path fill="none" d="M0 0h74.932v246.599H0z"/></clipPath></defs><title>education</title><path fill="#009ee3" d="M52.817 125.291l16.892-4.476.485 15.5-2.164 1.857-16.288 3.059 2.895-5.506-1.315-7.506-.505-2.928zM21.276 125.359l-.981 4.773.999 8.64.329 2.327-15.361-3.314-.527-18.102 11.862 4.561 3.679 1.115zM47.327 147.077v40.307l-9.861-11.038-9.861 13.275v-41.828l3.238 1.177 4.71.442 5.887-.442 5.887-1.893z"/><g clip-path="url(#aoa)"><path d="M54.637 133.022a17.17 17.17 0 1 0-17.171 17.171 17.171 17.171 0 0 0 17.17-17.17" fill="#fab233"/></g><path fill="#008fd1" d="M40.625 49.946V25.045l6.707-3.366 11.121-2.315 6.574 4.079 5.905 3.156-.456 8.281-4.68 6.428-11.16 7.068-14.011 3.078v-1.508z"/><g clip-path="url(#aoa)"><path d="M43.059 133.022a5.593 5.593 0 1 0-5.593 5.593 5.593 5.593 0 0 0 5.593-5.593" fill="#f2f2f2"/><path d="M55.204 133.114a17.54 17.54 0 0 0-17.738-17.334 17.339 17.339 0 1 0 0 34.668 17.54 17.54 0 0 0 17.738-17.334zM69.91 36.838c3.036-4.483 1.402-10.029-2.81-13.487-9.602-7.885-26.371-2.245-26.371 3.431v22.465m32.217-18.902c-1.663 15.721-6.647 76.465.485 190.067M1.985 30.346c1.663 15.72 6.647 76.465-.485 190.067m71.932 0c0 13.634-16.102 24.687-35.966 24.687-19.863 0-35.966-11.053-35.966-24.687M73.432 26.187c0 13.634-16.102 24.687-35.966 24.687C17.603 50.874 1.5 39.82 1.5 26.187S17.603 1.5 37.466 1.5c19.864 0 35.966 11.053 35.966 24.686z" fill="none" stroke="#0d3d59" stroke-linecap="round" stroke-miterlimit="10" stroke-width="3"/></g><path fill="none" stroke="#0d3d59" stroke-linecap="round" stroke-linejoin="round" stroke-width="3" d="M48.476 146.637v44.133l-11.01-14.892-11.01 14.892v-44.133"/><g clip-path="url(#aoa)"><path d="M4.879 136.924a59.854 59.854 0 0 0 16.949 5.455m32.073-.145a59.076 59.076 0 0 0 16.149-5.308m-64.178-17.8a49.601 49.601 0 0 0 15.173 5.47m32.333.096a60.965 60.965 0 0 0 15.809-4.967" fill="none" stroke="#0d3d59" stroke-linecap="round" stroke-linejoin="round" stroke-width="3"/></g></symbol><symbol viewBox="0 0 144.20721 189.72897" id="email"><title>email</title><path d="M88.799 92.526v93.588a1.62 1.62 0 0 1-1.615 1.615H3.614A1.62 1.62 0 0 1 2 186.114V69.844a1.62 1.62 0 0 1 1.615-1.615h58" fill="none" stroke="#0e3c58" stroke-linecap="round" stroke-linejoin="round" stroke-width="4"/><path fill="none" stroke="#0e3c58" stroke-linecap="round" stroke-linejoin="round" stroke-width="4" d="M88.799 92.526H61.615V68.229l27.184 24.297zM17.997 105.976h54.805M17.997 118.411h54.805M17.997 130.845h54.805M17.997 143.28h54.805M17.997 155.714h54.805M17.997 168.149h54.805M75.207 23l67-21-27 54-16-13.925-4.25 12.175-3.5-19.75L75.207 23zM91.457 34.5L142.207 2M99.207 42.075l41.482-39.103M94.957 54.25l9-5.75"/></symbol><symbol viewBox="0 0 215.088 182.631" id="enable"><defs><clipPath id="aqa"><path fill="none" d="M0 0h215.088v182.631H0z"/></clipPath></defs><title>Artboard 1</title><g clip-path="url(#aqa)"><path d="M211.238 181.13h-60.553a2.359 2.359 0 0 1-2.35-2.353V70.547a2.359 2.359 0 0 1 2.35-2.353h60.553a2.359 2.359 0 0 1 2.35 2.353v108.23a2.359 2.359 0 0 1-2.35 2.354zm-62.903-64.127H2.845a1.35 1.35 0 0 1-1.344-1.347V2.846A1.35 1.35 0 0 1 2.846 1.5h170.163a1.35 1.35 0 0 1 1.346 1.347v64.876" fill="none" stroke="#0d3d59" stroke-linecap="round" stroke-miterlimit="10" stroke-width="3"/><path d="M147.987 103.333H18.643a2.716 2.716 0 0 1-2.707-2.708V18.642a2.716 2.716 0 0 1 2.707-2.71h138.905a2.715 2.715 0 0 1 2.706 2.71v49.855m36.36 77.549H164.26a3.793 3.793 0 0 1-3.78-3.784V85.325a3.793 3.793 0 0 1 3.78-3.784h32.353a3.793 3.793 0 0 1 3.78 3.784v56.937a3.793 3.793 0 0 1-3.78 3.784zM126.305 117.404l4.209 29.465a5.523 5.523 0 0 1-5.337 5.662H66.96" fill="none" stroke="#0d3d59" stroke-linecap="round" stroke-miterlimit="10" stroke-width="3"/><path d="M101.87 59.533a13.796 13.796 0 1 0-13.797 13.793 13.795 13.795 0 0 0 13.796-13.793zm10.256-6.085h-1.575a.82.82 0 0 1-.78-.585 22.495 22.495 0 0 0-1.639-3.952.816.816 0 0 1 .14-.965l1.113-1.114a6.086 6.086 0 1 0-8.608-8.606l-1.114 1.114a.82.82 0 0 1-.966.14 22.496 22.496 0 0 0-3.952-1.639.818.818 0 0 1-.585-.78v-1.576a6.087 6.087 0 0 0-12.173 0v1.575a.819.819 0 0 1-.586.781 22.527 22.527 0 0 0-3.952 1.638.82.82 0 0 1-.966-.139l-1.114-1.114a6.086 6.086 0 1 0-8.608 8.606l1.115 1.114a.816.816 0 0 1 .138.965 22.57 22.57 0 0 0-1.638 3.952.82.82 0 0 1-.78.585H64.02a6.085 6.085 0 1 0 0 12.17h1.575a.819.819 0 0 1 .781.586 22.593 22.593 0 0 0 1.638 3.951.816.816 0 0 1-.138.965l-1.115 1.115a6.086 6.086 0 0 0 8.608 8.605l1.114-1.114a.818.818 0 0 1 .966-.138 22.6 22.6 0 0 0 3.952 1.637.82.82 0 0 1 .586.781v1.575a6.087 6.087 0 0 0 12.173 0v-1.575a.819.819 0 0 1 .585-.78 22.567 22.567 0 0 0 3.952-1.638.818.818 0 0 1 .966.138l1.114 1.114a6.086 6.086 0 1 0 8.608-8.605l-1.114-1.115a.817.817 0 0 1-.139-.965 22.517 22.517 0 0 0 1.638-3.95.819.819 0 0 1 .781-.587h1.575a6.085 6.085 0 1 0 0-12.17z" fill="none" stroke="#f5871f" stroke-linecap="round" stroke-linejoin="round" stroke-width="2"/><path d="M184.5 160.347a3.984 3.984 0 1 0-3.984 3.983 3.984 3.984 0 0 0 3.984-3.983" fill="#f5871f"/><circle cx="180.516" cy="160.347" r="3.983" fill="none" stroke="#0d3d59" stroke-linecap="round" stroke-miterlimit="10"/><path d="M49.994 117.404l-4.438 29.465a5.661 5.661 0 0 0 5.627 5.662H87.94" fill="none" stroke="#0d3d59" stroke-linecap="round" stroke-miterlimit="10" stroke-width="3"/></g></symbol><symbol viewBox="0 0 115.25765 174.71738" id="experience-in-industry"><title>experience-in-industry</title><circle cx="54.028" cy="140.717" r="32" fill="none" stroke="#0e3c58" stroke-linecap="round" stroke-linejoin="round" stroke-width="4"/><path fill="none" stroke="#0e3c58" stroke-linecap="round" stroke-linejoin="round" stroke-width="4" d="M68.842 94.884h6.186v20.375M33.028 115.884v-21h12.501M55.028 150.455v-21.141l-5.667 5.775M49.361 150.455h11.333"/><circle cx="54.028" cy="140.717" r="25.581" fill="none" stroke="#0e3c58" stroke-linecap="round" stroke-linejoin="round" stroke-width="4"/><path d="M70.3 140.717a16.226 16.226 0 0 0-5.09-11.82M42.448 102.697l53.117-98.01a4.758 4.758 0 0 1 6.463-1.908l8.75 4.777a4.758 4.758 0 0 1 1.897 6.456L85.071 64.574l-20.813 38.123M57.725 73.975L19.633 4.203a4.228 4.228 0 0 0-5.736-1.685L4.203 7.81a4.228 4.228 0 0 0-1.685 5.737L46.62 94.33M68.84 102.697H39.215M21.02 6.742a43.906 43.906 0 0 0 36.625 19.65A43.903 43.903 0 0 0 94.086 7.016M39.246 39.725a43.783 43.783 0 0 0 18.399 4.026 43.777 43.777 0 0 0 18.74-4.185" fill="none" stroke="#0e3c58" stroke-linecap="round" stroke-linejoin="round" stroke-width="4"/></symbol><symbol viewBox="0 0 7 15" id="facebook"><defs><clipPath id="asa"><path fill="none" d="M-9-6.401h32.208V16H-9z"/></clipPath></defs><title>facebook</title><g clip-path="url(#asa)"><path d="M4.36 5.81V4.032c0-.672.14-1.075 1.017-1.075.81 0 1.552.007 1.552.007L6.99.695A14.862 14.862 0 0 0 5.273.6C2.842.6 1.787 2.099 1.787 3.732V5.81H.001v2.432h1.786V15H4.36V8.242h2.526L7 5.809z" fill="#565759"/></g></symbol><symbol viewBox="0 0 512 512" id="facebook-circle"><path d="M256 0C114.609 0 0 114.609 0 256c0 141.391 114.609 256 256 256 141.391 0 256-114.609 256-256C512 114.609 397.391 0 256 0zm0 472c-119.297 0-216-96.703-216-216S136.703 40 256 40s216 96.703 216 216-96.703 216-216 216z"/><path d="M316.75 216.812h-44.531v-32.5c0-9.969 10.312-12.281 15.125-12.281h28.767v-43.859l-32.97-.172c-44.983 0-55.25 32.703-55.25 53.672v35.141H195.25V262h32.641v122h44.328V262h37.656l6.875-45.188z"/></symbol><symbol viewBox="0 0 478 323" id="graduate-home"><defs><clipPath id="aua"><path fill="none" d="M-652-43.92H477.795V323H-652z"/></clipPath></defs><title>graduate-home</title><g clip-path="url(#aua)"><path d="M73.803 214.75s-20 0-20 20v3.5s0 20 20 20h284s20 0 20-20v-3.5s0-20-20-20zM145.803 171.25s-20 0-20 20v3.5s0 20 20 20h140s20 0 20-20v-3.5s0-20-20-20z" fill="#ebecec"/><path fill="none" stroke="#0d3d59" stroke-linecap="round" stroke-miterlimit="10" stroke-width="3" d="M2.295 258.25h474"/></g><path fill="#fff" d="M132.795 104.8l93-6.3-3 99 5 90-98.543 1.3 6.543-91.3-3-92.7zM261.795 80.5h45v234h-45z"/><path fill="#009de2" d="M226.354 39.68l-7.548-7.548-6.84-5.947-16.607-3.728-12.786 3.636V63.835l13.587-1.51 13.587-5.145 9.059-5.423 7.548-12.077zM221.825 157.435l-37.742 9.058-49.82-9.058 1.51 22.645 21.136 4.529 3.019 7.549 4.529 3.019v51.329l13.587-16.606 13.587 18.116v-51.329l4.529-6.039 6.039-7.548 19.626-3.02v-22.645z"/><g clip-path="url(#aua)"><path d="M200.69 177.06a22.645 22.645 0 1 0-22.646 22.646 22.645 22.645 0 0 0 22.645-22.645" fill="#f4861f"/><path d="M185.592 177.06a7.549 7.549 0 1 0-7.548 7.549 7.548 7.548 0 0 0 7.548-7.548" fill="#fff"/></g><path fill="#f4861f" d="M350.147 183.192h15.097v99.547h-15.097z"/><path fill="#009de2" d="M259.566 81.951h10.568v229.472h-10.568z"/><g clip-path="url(#aua)"><path d="M305.033 120.29l-20.675.136m20.93 38.327l-11.278.075m11.533 38.389l-20.676.137m20.931 38.327l-11.278.074m11.533 38.389l-20.676.137m-24.815-57.227l-.894-134.93 45.11-.298 1.14 171.951.135 20.367.255 38.464-45.11.298-.499-75.133zm101.327 84.387l-5.537.025m3.054-180.354l18.305-.08.18 40.901m-14.237 120.909l-12.92.056m.047 11.155l-.489-111.548 14.767-.065.49 111.548-7.303 18.624zm-.489-111.548l-.269-61.352 14.767-.064.27 61.351zm-190.436-20.541l-25.85-4.586m.191 23.254l21.333 3.784m40.881-22.452l25.851-4.586m-.192 23.254l-22.57 4.004m-7.873 10.757v53.176l-13.699-18.232-13.699 18.232v-53.176m36.53-18.235a22.831 22.831 0 1 0-22.83 22.791 22.81 22.81 0 0 0 22.83-22.791zM182.144 63.09V25.219s27.748-9.116 44.11 13.295M127.7 32.816s13.7 162.575 0 258.296M228.157 32.816s-13.699 162.575 0 258.296m-100.458 0c0 16.783 22.49 30.388 50.23 30.388s50.228-13.605 50.228-30.388m0-258.296c0-16.783-22.488-30.388-50.229-30.388-27.74 0-50.229 13.605-50.229 30.388s22.49 30.388 50.23 30.388 50.228-13.605 50.228-30.388z" fill="none" stroke="#0d3d59" stroke-linecap="round" stroke-linejoin="round" stroke-width="3"/></g></symbol><symbol viewBox="0 0 24.11 17.932" id="hide"><defs><clipPath id="ava"><path fill="none" d="M0 2.294h24.11v13.638H0z"/></clipPath><clipPath id="avb"><path fill="none" d="M3 0h17.932v17.932H3z"/></clipPath></defs><title>hide</title><g clip-path="url(#ava)" fill="none" stroke="#565759" stroke-linecap="round"><path d="M12.055 15.432c6.303 0 11.412-6.319 11.412-6.319s-5.109-6.319-11.412-6.319S.643 9.114.643 9.114s5.11 6.318 11.412 6.318z"/><circle cx="12.055" cy="9.113" r="3.622"/></g><g clip-path="url(#avb)"><path fill="none" stroke="#f5871f" d="M20.578.354L3.353 17.579"/></g></symbol><symbol viewBox="0 0 221 231.187" id="integration"><defs><clipPath id="awa"><path fill="none" d="M0 0h221v231.187H0z"/></clipPath></defs><title>integration</title><g clip-path="url(#awa)" fill="none" stroke-linecap="round" stroke-linejoin="round" stroke-width="3"><path d="M17.529 178.506l18.1.933m-21.716 17.65l3.616-18.117m.134-.083q.768 1.233 1.568 2.443a107.676 107.676 0 0 0 174.982 6.624" stroke="#565759"/><path d="M111.815 14.21l-10.45 14.914M98.261 1.5l13.554 12.71m-1.925-.168C50.028 14.042 1.5 62.404 1.5 122.06a107.272 107.272 0 0 0 11.022 47.514" stroke="#f5871f"/><path d="M201.115 179.101l-6.618-18.408m25.003 18.408h-18.385m.005-.49a107.166 107.166 0 0 0 16.08-56.62c0-55.314-41.757-100.918-95.604-107.278" stroke="#008fd0"/><path d="M123.168 104.708l7.148-7.209 7.418 9.306-8.615 5.368m2.23 9.778l10.091 1.097-2.648 11.604-9.567-3.39m-6.25 7.84l5.434 8.577-10.719 5.164-3.315-9.597m-10.024 0l-3.315 9.597-10.719-5.164 5.434-8.577m-6.25-7.84l-9.568 3.39-2.647-11.604 10.09-1.097m2.231-9.777l-8.615-5.369L88.41 97.5l7.15 7.208m9.031-4.35l-1.176-10.087h11.898l-1.176 10.086m4.371 21.472a9.144 9.144 0 1 0-9.144 9.148 9.146 9.146 0 0 0 9.144-9.148zm12.84 0a21.983 21.983 0 1 0-21.984 21.993 21.988 21.988 0 0 0 21.983-21.993z" stroke="#0d3d59"/></g></symbol><symbol viewBox="0 0 243.51174 187.68497" id="knowledge-transfer"><title>transfer-ideas</title><path d="M66.957 171.848H33.449a4.484 4.484 0 0 1-4.424-3.756l-3.526-21.452a4.484 4.484 0 0 1 4.424-5.21h41.265a4.484 4.484 0 0 1 4.399 5.35l-4.231 21.452a4.484 4.484 0 0 1-4.4 3.616zM36.72 171.848a13.837 13.837 0 0 0 27.672 0M28.283 162.712h19.859M54.463 150.566h19.859M88.855 66.22a42.423 42.423 0 1 0-61.58 53.715c-.002.075 1.967 21.245 1.967 21.245M70.006 141.429s3.832-21.419 3.832-21.494a42.632 42.632 0 0 0 14.73-16.614" fill="none" stroke="#0e3c58" stroke-linecap="round" stroke-linejoin="round" stroke-width="4"/><path d="M45.93 141.43V89.705a9.75 9.75 0 0 0-9.75-9.75 9.75 9.75 0 0 0-9.75 9.75 9.75 9.75 0 0 0 9.75 9.75M55.18 141.43V89.705a9.75 9.75 0 0 1 9.75-9.75 9.75 9.75 0 0 1 9.75 9.75 9.75 9.75 0 0 1-9.75 9.75M209.947 171.667H176.44a4.484 4.484 0 0 1-4.425-3.757l-3.526-21.452a4.484 4.484 0 0 1 4.425-5.21h41.264a4.484 4.484 0 0 1 4.4 5.35l-4.232 21.453a4.484 4.484 0 0 1-4.399 3.616zM179.71 171.667a13.837 13.837 0 0 0 27.673 0M171.273 162.53h19.86M197.453 150.384h19.86M155.632 103.337a42.635 42.635 0 0 0 14.632 16.416c0 .075 1.969 21.245 1.969 21.245M212.996 141.247s3.833-21.419 3.832-21.494a42.42 42.42 0 1 0-61.72-53.421" fill="none" stroke="#0e3c58" stroke-linecap="round" stroke-linejoin="round" stroke-width="4"/><path d="M188.921 141.248V89.524a9.75 9.75 0 0 0-9.75-9.75 9.75 9.75 0 0 0-9.75 9.75 9.75 9.75 0 0 0 9.75 9.75M198.171 141.248V89.524a9.75 9.75 0 0 1 9.75-9.75 9.75 9.75 0 0 1 9.75 9.75 9.75 9.75 0 0 1-9.75 9.75M193.546 171.667v5M50.556 172.792v3.875M142.929 75.695L151.665 86M151.665 86l-8.758 9.941M98.499 75.877l-8.735 10.305M89.764 86.182l8.757 9.941M151.665 86H92.437M193.546 30.333V2M155.598 46.052L144.99 35.444M231.494 46.052l10.018-10.017M50.556 30.333V2M12.608 46.052L2 35.444M88.504 46.052l10.017-10.017" fill="none" stroke="#0e3c58" stroke-linecap="round" stroke-linejoin="round" stroke-width="4"/></symbol><symbol viewBox="0 0 226 256.38901" id="learning"><defs><clipPath id="aya"><path fill="none" d="M0 0h234.281v256.389H0z"/></clipPath><clipPath id="ayb"><path fill="none" d="M40 32.345h132.212v148.044H40z"/></clipPath></defs><title>learning</title><g clip-path="url(#aya)"><path d="M34.024 254.066a23.74 23.74 0 0 1-23.701-23.641v-19.621m192.836 1.769H36.927m166.232 41.493a20.747 20.747 0 1 0 0-41.493M36.927 254.066a20.747 20.747 0 1 0-13.854-36.222m180.086 36.222H34.024m-23.701-43.262V16.043a7.753 7.753 0 0 1 7.739-7.72h171.553a7.752 7.752 0 0 1 7.739 7.72v196.53" fill="none" stroke="#0d3d59" stroke-linecap="round" stroke-miterlimit="10" stroke-width="2.646"/></g><g clip-path="url(#ayb)"><path d="M134.058 70.381c-.882 1.762 0 44.102 0 44.102l13.23-10.473 12.863 9.7.625-42.079z" fill="#008fd0"/><path d="M170.89 63.662a23.351 23.351 0 1 0-23.352 23.35 23.352 23.352 0 0 0 23.351-23.35" fill="#f5871f"/><circle cx="147.538" cy="63.662" r="23.351" fill="none" stroke="#0d3d59" stroke-linecap="round" stroke-miterlimit="10" stroke-width="2.646"/><path d="M169.639 154.833h-80.44m-18.066 0h-29.81m0 24.233h128.316M41.323 130.6h80.44m18.066 0h29.81M41.323 82.134h59.298M41.323 57.901h59.298M41.323 33.668H87.01m73.277 49.392v30.738l-13.007-9.693-13.007 9.693V84.002" fill="none" stroke="#0d3d59" stroke-linecap="round" stroke-linejoin="round" stroke-width="2.646"/></g></symbol><symbol viewBox="0 0 430.117 430.117" id="linkedin"><path d="M430.117 261.543V420.56h-92.188V272.193c0-37.271-13.334-62.707-46.703-62.707-25.473 0-40.632 17.142-47.301 33.724-2.432 5.928-3.058 14.179-3.058 22.477V420.56h-92.219s1.242-251.285 0-277.32h92.21v39.309c-.187.294-.43.611-.606.896h.606v-.896c12.251-18.869 34.13-45.824 83.102-45.824 60.673-.001 106.157 39.636 106.157 124.818zM52.183 9.558C20.635 9.558 0 30.251 0 57.463c0 26.619 20.038 47.94 50.959 47.94h.616c32.159 0 52.159-21.317 52.159-47.94-.606-27.212-20-47.905-51.551-47.905zM5.477 420.56h92.184V143.24H5.477v277.32z"/></symbol><symbol viewBox="0 0 512 512" id="linkedin-circle"><path d="M256 0C114.609 0 0 114.609 0 256c0 141.391 114.609 256 256 256 141.391 0 256-114.609 256-256C512 114.609 397.391 0 256 0zm0 472c-119.297 0-216-96.703-216-216S136.703 40 256 40s216 96.703 216 216-96.703 216-216 216z"/><path d="M128.094 383.891h48v-192h-48v192zm192-192c-41.094.688-61.312 30.641-64 32v-32h-48v192h48v-112c0-4.108 10.125-37 48-32 20.344 1.328 31.312 28.234 32 32v112l47.812.219V251.188c-1.687-19.188-11.281-58.61-63.812-59.297zm-168-64c-13.25 0-24 10.734-24 24s10.75 24 24 24 24-10.734 24-24-10.75-24-24-24z"/></symbol><symbol viewBox="0 0 16.25781 16" id="linkedin-small"><title>linkedin</title><path d="M3.763 1.91A1.143 1.143 0 0 1 2.53 3.098 1.15 1.15 0 0 1 1.364 1.91 1.18 1.18 0 0 1 2.574.7a1.15 1.15 0 0 1 1.189 1.21zM1.606 15.552V4.902h1.936v10.65zM5.654 7.784c0-1.1-.022-2.002-.088-2.882h1.716l.11 1.76h.045a3.916 3.916 0 0 1 3.52-2.002c1.474 0 3.762.88 3.762 4.532v6.36h-1.936V9.413c0-1.717-.638-3.146-2.464-3.146a2.751 2.751 0 0 0-2.597 1.98 2.78 2.78 0 0 0-.132.901v6.404H5.654z" fill="#565759"/></symbol><symbol viewBox="0 0 733.000000 159.000000" id="logo"><g transform="matrix(.1 0 0 -.1 0 159)"><path d="M500 1575c-30-8-93-34-140-56-160-78-292-242-336-419-21-84-21-227 0-310 58-232 243-418 471-475 53-13 70-24 130-83 39-38 102-87 141-110 94-54 235-101 315-105l62-2 34 85c51 131 52 120-9 120-29 0-82 7-117 15-63 15-181 71-181 85 0 4 19 15 43 25 72 28 165 95 228 163 191 209 223 523 77 770-72 122-219 238-358 284-86 27-280 35-360 13zm240-205c228-43 385-266 349-493-23-141-115-261-249-326-72-34-80-36-180-36-121 1-181 19-265 83-292 222-200 670 158 767 63 17 117 18 187 5z"/><path d="M1491 1568c-5-13-41-106-80-207l-71-185 17-60c22-84 22-261 0-346-24-90-87-213-146-286-27-34-84-87-125-118-42-31-76-62-76-67 0-6 47-9 121-7l121 3 55 148 55 147h543l56-148 56-147 120-3 121-3-182 483c-100 266-211 558-247 651l-64 167h-133c-128 0-133-1-141-22zm238-512c50-131 91-240 91-242s-83-4-185-4-185 3-185 8c0 4 38 108 85 232s88 231 90 239c3 8 7 12 10 10 2-3 45-112 94-243zM2980 1261c-88-27-174-103-212-189-18-38-22-66-22-152-1-95 2-110 27-162 58-119 174-188 315-188 86 0 148 23 212 78 30 26 33 32 21 46-18 22-34 20-57-5-35-40-113-69-184-69-84 0-151 31-207 94-51 58-73 120-73 206 0 97 23 155 89 220 63 63 106 80 198 80 70 0 118-17 167-61 29-25 38-28 56-19 27 15 25 24-12 56-63 52-125 74-213 73-44 0-91-4-105-8zM5630 920V580h50v680h-50V920zM6124 1216c-11-28 1-51 27-54 31-4 53 20 44 48-8 24-62 29-71 6zM5860 1140v-70h-40c-33 0-40-3-40-20s7-20 40-20h40V835c0-248 7-265 101-265 57 0 82 15 69 41-9 15-15 17-30 9-30-16-58-12-74 12-13 18-16 56-16 210v188h50c43 0 50 3 50 19 0 17-8 20-47 23l-48 3-3 68c-3 64-4 67-27 67-24 0-25-2-25-70zM3606 1079c-111-27-176-120-176-252 0-33 5-77 12-98 14-50 69-114 119-139 50-26 149-27 205-1 143 65 180 301 65 424-53 58-146 85-225 66zm152-66c124-92 112-323-21-384-78-35-151-19-204 45-87 106-64 280 47 346 45 27 137 24 178-7zM4212 1076c-23-8-58-26-77-40-43-33-45-33-45 4 0 25-4 30-25 30h-25V580h50v378l33 28c44 37 88 54 142 54 35 0 51-6 77-29l33-29 3-201 3-201h50l-3 208c-3 223-7 242-61 276-34 22-106 27-155 12zM4665 1072c-58-20-95-66-95-118 0-73 39-107 166-142 85-24 129-45 138-67 14-37 5-72-25-101-28-27-36-29-104-29-67 0-78 3-119 32-45 32-46 32-57 11-10-18-8-24 7-36 45-34 100-52 167-52 116 0 177 42 184 127 7 88-34 127-173 164-47 12-97 31-110 41-34 27-32 72 5 109 26 26 36 29 91 29 59 0 129-24 145-50 5-7 12-5 20 7 16 22 6 37-44 63-56 28-137 33-196 12zM6530 1079c-19-6-54-24-78-40s-45-29-48-29c-2 0-4 14-4 30 0 23-4 30-20 30-19 0-20-7-20-245s1-245 20-245 20 7 20 184c0 168 2 185 20 209 43 55 153 84 214 56 48-22 56-60 56-263V580h50v198c0 215-7 246-60 283-32 23-105 31-150 18zM7055 1081c-57-15-96-42-125-88-90-142-45-353 88-409 73-30 177-10 226 45 32 35 39 26 33-45-8-101-54-151-149-161-65-7-122 9-159 44-24 22-27 22-39 8-19-23-4-45 50-72 35-18 61-23 124-23 99 0 155 24 194 83l27 40 3 284 3 283h-25c-23 0-26-4-26-37v-37l-27 26c-56 52-135 75-198 59zm142-62c76-37 83-54 83-194V702l-39-35c-95-86-224-66-278 43-40 78-28 214 25 274 52 58 133 72 209 35zM5072 868c2-171 6-208 21-235 23-44 64-63 132-63 64 0 106 15 153 54l32 28v-36c0-32 3-36 25-36h25v490h-50l-2-192-3-192-42-32c-75-57-175-57-217-1-19 26-21 44-24 223l-4 194h-49l3-202zM6130 825V580h50v490h-50V825z"/></g></symbol><symbol viewBox="0 0 1792 1792" id="menu"><path d="M1664 1344v128q0 26-19 45t-45 19H192q-26 0-45-19t-19-45v-128q0-26 19-45t45-19h1408q26 0 45 19t19 45zm0-512v128q0 26-19 45t-45 19H192q-26 0-45-19t-19-45V832q0-26 19-45t45-19h1408q26 0 45 19t19 45zm0-512v128q0 26-19 45t-45 19H192q-26 0-45-19t-19-45V320q0-26 19-45t45-19h1408q26 0 45 19t19 45z"/></symbol><symbol viewBox="0 0 172.55185 191.13633" id="onshore-consultants"><title>onshore-consultants</title><path d="M15.91 122.238v46.069a6.927 6.927 0 0 1-6.927 6.927 6.927 6.927 0 0 1-6.926-6.927V135.2c0-3.825-1.976-25.21 17.425-25.21h8.677M77.76 122.238v46.069a6.927 6.927 0 0 0 6.928 6.927 6.927 6.927 0 0 0 6.926-6.927V135.2c0-3.825 1.976-25.21-17.425-25.21h-8.677" fill="none" stroke="#0e3c58" stroke-linecap="round" stroke-linejoin="round" stroke-width="4"/><path d="M77.658 122.233l-3.222 66.903H19.132l-3.222-66.903a12.238 12.238 0 0 1 12.243-12.243h37.262a12.238 12.238 0 0 1 12.243 12.243z" fill="none" stroke="#0e3c58" stroke-linecap="round" stroke-linejoin="round" stroke-width="4"/><circle cx="46.787" cy="74.288" r="26.044" fill="none" stroke="#0e3c58" stroke-linecap="round" stroke-linejoin="round" stroke-width="4"/><circle cx="136.217" cy="36.335" r="34.335" fill="none" stroke="#0e3c58" stroke-linecap="round" stroke-linejoin="round" stroke-width="4"/><path d="M119.345 66.244s-8.13-12.276-4.984-27.076c1.035-4.864 3.315-7.5 5.44-8.833 4.778-2.997 8.31-5.575 9.5-8.333 1.313-3.042 3.063-8.042-3.166-12.667-3.908-2.902-4.301-4.179-4.301-4.179M144.68 69.18a34.882 34.882 0 0 0-5.546-4.862c-6.264-4.59-7.379-7.153-3.934-10.725s4.102-4.091 5.49-6.466c2.911-4.983 1.78-8.342 4.194-10.792 2.793-2.833 8.568-1.557 10.168 1.125 4.375 7.333 13.625 4.958 13.625 4.958" fill="none" stroke="#0e3c58" stroke-linecap="round" stroke-linejoin="round" stroke-width="4"/></symbol><symbol viewBox="0 0 282.24399 329.95499" id="platforms"><defs><clipPath id="bfa"><path fill="none" d="M0 0h282.244v329.955H0z"/></clipPath></defs><title>platforms</title><g clip-path="url(#bfa)"><path d="M136.778 328.455l94.985-53.66v-26.112m-94.986 79.772l-94.985-53.66v-27.509m0-74.844v-38.744L90.58 106.26M41.792 175.38v-41.682L90.58 106.26m141.182 70.56v-43.12l-47.492-26.71M27.724 186.61l46.197-28.338 46.197 28.338m-46.197 78.263v-52.223l-46.197-26.04v51.194zm0 0v-52.223l46.197-26.04v51.194z" fill="none" stroke="#0d3d59" stroke-linecap="round" stroke-linejoin="round" stroke-width="3"/></g><path d="M90.1 88.368l46.624-28.66 46.624 28.66m-93.247 0v51.776l46.623 27.377v-52.816L90.1 88.368m93.247 0v51.776l-46.624 27.377" fill="none" stroke="#f5871f" stroke-linecap="round" stroke-linejoin="round" stroke-width="3"/><path fill="none" stroke="#f5871f" stroke-linecap="round" stroke-linejoin="round" stroke-width="3" d="M135.945 167.521v-53.092l47.402-26.475"/><path d="M152.477 185.928l46.623-28.66 46.624 28.66m-93.247 0v51.776l46.623 27.377v-52.816l-46.623-26.337m93.247 0v51.776L199.1 265.081" fill="none" stroke="#008fd0" stroke-linecap="round" stroke-linejoin="round" stroke-width="3"/><path fill="none" stroke="#008fd0" stroke-linecap="round" stroke-linejoin="round" stroke-width="3" d="M198.322 265.081v-53.092l47.402-26.475"/><g clip-path="url(#bfa)"><path fill="none" stroke="#f5871f" stroke-width="2" d="M135.163 0v34.531"/></g><path fill="none" stroke="#f5871f" stroke-width="2" d="M139.887 29.451l-4.724 5.081-4.723-5.081"/><g clip-path="url(#bfa)"><path fill="none" stroke="#f5871f" stroke-width="2" d="M281.537 318.375l-24.417-24.417"/></g><path fill="none" stroke="#f5871f" stroke-width="2" d="M257.372 300.89l-.252-6.933 6.932.253"/><g clip-path="url(#bfa)"><path fill="none" stroke="#f5871f" stroke-width="2" d="M.707 318.375l24.417-24.417"/></g><path fill="none" stroke="#f5871f" stroke-width="2" d="M18.192 294.21l6.933-.252-.253 6.932"/></symbol><symbol viewBox="0 0 410.33206 410.7533" id="play"><path fill="currentColor" d="M160.59 402.37c-40.79-9.84-70.492-26.35-99.239-55.15C4.29 290.04-12.57 204.53 18.096 127.84 34.447 86.947 72.857 45.313 112.72 25.27c32.6-16.393 53.19-21.16 91.84-21.265 24.673-.067 31.779.528 44.855 3.754 53.253 13.141 94.573 41.74 124.23 85.985 52.488 78.31 42.786 183.65-23.153 251.39-29.679 30.49-60.751 47.99-101.71 57.281-25.555 5.797-64.058 5.776-88.197-.048zm67.78-133.17c45.716-26.254 89.135-51.171 96.486-55.37 7.351-4.2 13.359-8.135 13.351-8.745-.009-.61-2.918-2.716-6.467-4.68-3.55-1.963-46.623-26.63-95.72-54.817-49.096-28.186-90.421-51.69-91.833-52.232-2.257-.866-2.567 12.581-2.567 111.3 0 77.446.563 112.28 1.815 112.28.998 0 39.219-21.48 84.935-47.735z"/></symbol><symbol viewBox="0 0 286.00601 179" id="public"><defs><clipPath id="bha"><path fill="none" d="M0 0h286.006v179H0z"/></clipPath></defs><title>public</title><path fill="#f5871f" d="M143.003 3v9.81h15.889l-4.564-4.905L158.892 3h-15.889z"/><g clip-path="url(#bha)" fill="none" stroke-width="3"><path stroke="#f5871f" stroke-miterlimit="10" d="M143.003 3v9.81h15.889l-4.564-4.905L158.892 3h-15.889z"/><path d="M184.068 90.79v-8.867m-20.532 8.867V68.932M143.003 90.79V57.177M122.47 90.79V68.932M101.938 90.79v-9.486m60.51-67.844h-19.445V1.5h19.446l-5.585 5.98zm-19.445 16.704V7.48m15.102 22.684H127.9v4.537h30.204zm-7.654 15.127V34.7h-14.895v10.591m60.433 52.82H90.017a52.986 52.986 0 0 1 105.972 0zm27.54 0H62.477v7.114h161.052zm-5.895 7.114H68.373v6.186h149.26zm-11.404 6.186h-12.568v48.767h12.568zm-56.943 0h-12.568v48.767h12.568zm-57.02 0H79.699v48.767h12.568zm118.384 48.767h-21.412v6.086h21.412zm-56.942 0h-21.412v6.086h21.412zm-56.943 0H75.354v6.086h21.412zm135.142 6.086H54.098V177.5h177.81zm52.598 11.236H1.5" stroke="#0d3d59" stroke-linecap="round" stroke-linejoin="round"/></g><path fill="#009ee3" d="M105.267 134.5h18.149v31.668h-18.149z"/><path fill="none" stroke="#0d3d59" stroke-linecap="round" stroke-linejoin="round" stroke-width="3" d="M105.267 134.5h18.149v31.668h-18.149z"/><path fill="#009ee3" d="M164.774 134.5h18.149v31.668h-18.149z"/><path fill="none" stroke="#0d3d59" stroke-linecap="round" stroke-linejoin="round" stroke-width="3" d="M164.774 134.5h18.149v31.668h-18.149z"/><path d="M130.606 122.881H98.962m15.822-4.811v9.622m15.822 0H98.963v-9.622h31.643zm56.359-4.811h-31.643m15.822-4.811v9.622m15.821 0h-31.643v-9.622h31.643z" fill="none" stroke="#f5871f" stroke-linecap="round" stroke-linejoin="round" stroke-width="2"/><path d="M197.803 116.36h3.956v39.593M140.86 116.36h3.957v39.593M83.918 116.36h3.956v39.593m-4.538-39.593h3.956v39.593M169.215 139.619h8.962v20.773m-68.59-20.773h8.962v20.773" fill="none" stroke="#0d3d59" stroke-linecap="round" stroke-linejoin="round" stroke-width="2"/></symbol><symbol viewBox="0 0 229.44086 169.96819" id="qa-academy"><title>qa-academy</title><path fill="none" stroke="#0e3c58" stroke-linecap="round" stroke-linejoin="round" stroke-width="4" d="M201.774 14v115.5M24.274 51.76V14.375"/><rect x="16.024" y="2" width="194" height="12" rx="4.252" ry="4.252" fill="none" stroke="#0e3c58" stroke-linecap="round" stroke-linejoin="round" stroke-width="4"/><circle cx="152.274" cy="71.065" r="31.667" fill="none" stroke="#0e3c58" stroke-linecap="round" stroke-linejoin="round" stroke-width="4"/><path fill="none" stroke="#0e3c58" stroke-linecap="round" stroke-linejoin="round" stroke-width="4" d="M152.274 39.398V71.75l14.141 27.657M152.274 71.75l25.667-16.917M12.695 116.534v35.42a5.326 5.326 0 0 1-5.326 5.325 5.326 5.326 0 0 1-5.325-5.325V126.5c0-2.941-1.52-19.383 13.397-19.383h6.671M57.118 109.605l34.078-24.43a5.326 5.326 0 0 1 7.42 1.293 5.326 5.326 0 0 1-1.293 7.42L61.274 119.5"/><path d="M60.17 116.53l-2.478 51.438h-42.52l-2.477-51.438a9.409 9.409 0 0 1 9.413-9.413h28.648a9.409 9.409 0 0 1 9.413 9.413z" fill="none" stroke="#0e3c58" stroke-linecap="round" stroke-linejoin="round" stroke-width="4"/><circle cx="36.434" cy="79.668" r="20.024" fill="none" stroke="#0e3c58" stroke-linecap="round" stroke-linejoin="round" stroke-width="4"/><path fill="none" stroke="#0e3c58" stroke-linecap="round" stroke-linejoin="round" stroke-width="4" d="M98.616 86.468l42.058-28.367M227.441 129.5H70.169M76.274 39.398h37.825M33.524 39.398h28.75M95.774 60.509h18.325M62.274 60.509h21.5"/></symbol><symbol viewBox="0 0 221.455 280.039" id="services"><defs><clipPath id="bja"><path fill="none" d="M0 0h221.455v280.039H0z"/></clipPath></defs><title>services</title><g clip-path="url(#bja)" fill="none" stroke-linecap="round" stroke-linejoin="round" stroke-width="3"><path d="M172.25 80.827H49.205v-9.415H172.25zm-53.273-44.37a8.25 8.25 0 1 0-8.25 8.249 8.25 8.25 0 0 0 8.25-8.249zm54.679 191.559H49.205m85.386 40.829H87.983l2.237-19.389h42.133zm47.726 9.694H40.256l8.949-58.726H172.25zM58.382 159.078h104.69v51.557H58.382zM172.25 71.413H49.205V1.501H172.25zm0 148.4H49.205v-69.912H172.25z" stroke="#0d3d59"/><path d="M196.881 152.178l-5.283 13.583m0-.1l7.52 11.346m-7.52-134.631a28.356 28.356 0 0 1 28.356 28.356v66.573a28.355 28.355 0 0 1-28.356 28.356" stroke="#f5871f"/><path d="M24.573 67.205l5.283-13.583m0 .1l-7.52-11.346m7.52 134.63A28.356 28.356 0 0 1 1.5 148.652V82.078a28.356 28.356 0 0 1 28.356-28.356" stroke="#008fd0"/></g></symbol><symbol viewBox="0 0 165.60979 177.47288" id="skilled-consultants"><title>skilled-consultants</title><path d="M15.91 108.575v46.068a6.927 6.927 0 0 1-6.927 6.927 6.927 6.927 0 0 1-6.926-6.927v-33.106c0-3.826-1.976-25.21 17.425-25.21h8.677M77.76 108.575v46.068a6.927 6.927 0 0 0 6.928 6.927 6.927 6.927 0 0 0 6.926-6.927v-33.106c0-3.826 1.976-25.21-17.425-25.21h-8.677" fill="none" stroke="#0e3c58" stroke-linecap="round" stroke-linejoin="round" stroke-width="4"/><path d="M77.658 108.57l-3.222 66.903H19.132L15.91 108.57a12.238 12.238 0 0 1 12.243-12.244h37.262a12.238 12.238 0 0 1 12.243 12.244z" fill="none" stroke="#0e3c58" stroke-linecap="round" stroke-linejoin="round" stroke-width="4"/><circle cx="46.787" cy="60.624" r="26.044" fill="none" stroke="#0e3c58" stroke-linecap="round" stroke-linejoin="round" stroke-width="4"/><path d="M127.672 81.5H109.44a6.043 6.043 0 0 1-6.04-6.05V8.05A6.043 6.043 0 0 1 109.44 2h38.1l16.07 16.97v56.48a6.052 6.052 0 0 1-6.05 6.05h-17.388" fill="none" stroke="#0e3c58" stroke-linecap="round" stroke-linejoin="round" stroke-width="4"/><path d="M147.54 12.92V2l16.07 16.97h-10.02a6.052 6.052 0 0 1-6.05-6.05zM145.153 59.5c0-1.674 1.014-3.539.41-4.995-.626-1.51-2.684-2.104-3.822-3.242s-1.732-3.195-3.241-3.821c-1.456-.604-3.32.41-4.995.41s-3.54-1.014-4.995-.41c-1.51.626-2.104 2.684-3.242 3.821s-3.195 1.733-3.821 3.242c-.604 1.456.41 3.32.41 4.995s-1.014 3.539-.41 4.995c.626 1.51 2.684 2.104 3.821 3.242s1.733 3.195 3.242 3.821c1.456.604 3.32-.41 4.995-.41s3.539 1.014 4.995.41c1.51-.626 2.104-2.684 3.241-3.821s3.196-1.733 3.822-3.242c.604-1.456-.41-3.32-.41-4.995z" fill="none" stroke="#0e3c58" stroke-linecap="round" stroke-linejoin="round" stroke-width="4"/><path fill="none" stroke="#0e3c58" stroke-linecap="round" stroke-linejoin="round" stroke-width="4" d="M139.338 71.75v19.542l-5.833-9-5.834 9V71.75"/><circle cx="133.505" cy="59.5" r="4.295" fill="#0e3c58"/><path fill="none" stroke="#0e3c58" stroke-linecap="round" stroke-linejoin="round" stroke-width="4" d="M112.776 12.333h34.764M130.814 28.507h23.796M112.776 28.507h9.709M149.109 41.76h5.501M133.735 41.76h7.5M112.776 41.76h13.084"/></symbol><symbol viewBox="0 0 476.41599 405.42529" id="solutions-home"><defs><clipPath id="bla"><path fill="none" d="M0 0h476.416v405.425H0z"/></clipPath></defs><title>solutions-home</title><g clip-path="url(#bla)"><path d="M223.887 56.612V6.325a4.85 4.85 0 0 0-4.813-4.857H52.245a4.85 4.85 0 0 0-4.813 4.857V109.19a4.85 4.85 0 0 0 4.813 4.856h28.76v50.398l71.361-50.398h13.885z" fill="#fff"/><path d="M82.915 211.694s-11 0-11 11v3.16s0 11 11 11h224.566s11 0 11-11v-3.16s0-11-11-11z" fill="#ebecec"/><path d="M56.497 230.565s-11 0-11 11v3.16s0 11 11 11H351.51s11 0 11-11v-3.16s0-11-11-11z" fill="#ebecec"/><path fill="none" stroke="#0d3d59" stroke-linecap="round" stroke-miterlimit="10" stroke-width="3" d="M1.5 255.716h449.037"/></g><path fill="#fff" d="M295.977 200.362h124.261v171.226H295.977zM10.274 197.018v134.045h170.247v74.362h73.383V273.336h-44.03v-76.318h-199.6z"/><path fill="#cbe8f5" d="M28.68 214.567v100.665h150.909l.695-40.082 13.422-.671v-59.912H28.68z"/><g clip-path="url(#bla)"><path d="M252.148 403.925H182.75a2.703 2.703 0 0 1-2.693-2.698v-124.08a2.703 2.703 0 0 1 2.693-2.698h69.398a2.704 2.704 0 0 1 2.694 2.698v124.08a2.704 2.704 0 0 1-2.694 2.698zm-72.091-73.52H13.316a1.548 1.548 0 0 1-1.542-1.544V199.533a1.548 1.548 0 0 1 1.542-1.545h195.02a1.548 1.548 0 0 1 1.542 1.545v74.376" fill="none" stroke="#0d3d59" stroke-linecap="round" stroke-miterlimit="10" stroke-width="3"/><path d="M179.67 314.78H31.392a3.114 3.114 0 0 1-3.102-3.108v-94.064a3.114 3.114 0 0 1 3.102-3.108H190.63a3.114 3.114 0 0 1 3.102 3.108v57.201m41.68 88.977h-37.088a4.349 4.349 0 0 1-4.333-4.34v-65.328a4.35 4.35 0 0 1 4.333-4.342h37.089a4.35 4.35 0 0 1 4.333 4.342v65.327a4.35 4.35 0 0 1-4.333 4.341zM154.958 330.587l4.844 34.07a6.373 6.373 0 0 1-6.142 6.548H86.662" fill="none" stroke="#0d3d59" stroke-linecap="round" stroke-miterlimit="10" stroke-width="3"/><path d="M126.908 264.596a15.876 15.876 0 1 0-15.876 15.873 15.874 15.874 0 0 0 15.876-15.873zm11.804-7.002H136.9a.942.942 0 0 1-.898-.674 25.947 25.947 0 0 0-1.885-4.547.94.94 0 0 1 .16-1.11l1.281-1.283a7.003 7.003 0 1 0-9.905-9.903l-1.282 1.282a.94.94 0 0 1-1.112.16 25.925 25.925 0 0 0-4.548-1.886.94.94 0 0 1-.673-.898v-1.812a7.004 7.004 0 0 0-14.008 0v1.812a.942.942 0 0 1-.675.898 25.957 25.957 0 0 0-4.548 1.885.939.939 0 0 1-1.11-.159l-1.284-1.282a7.003 7.003 0 1 0-9.905 9.903l1.283 1.282a.94.94 0 0 1 .16 1.111 25.947 25.947 0 0 0-1.886 4.547.943.943 0 0 1-.899.674h-1.813a7.024 7.024 0 0 0-7.003 7.002v.001a7.024 7.024 0 0 0 7.003 7.002h1.813a.943.943 0 0 1 .9.674 25.947 25.947 0 0 0 1.884 4.547.94.94 0 0 1-.159 1.111l-1.283 1.283a7.003 7.003 0 1 0 9.905 9.902l1.283-1.282a.94.94 0 0 1 1.111-.159 25.957 25.957 0 0 0 4.548 1.885.942.942 0 0 1 .675.898v1.812a7.004 7.004 0 0 0 14.008 0v-1.812a.94.94 0 0 1 .673-.898 25.925 25.925 0 0 0 4.548-1.885.942.942 0 0 1 1.112.16l1.282 1.281a7.024 7.024 0 0 0 9.905 0h.001a7.022 7.022 0 0 0 0-9.902l-1.283-1.283a.94.94 0 0 1-.159-1.11 25.947 25.947 0 0 0 1.885-4.548.942.942 0 0 1 .898-.674h1.813a7.023 7.023 0 0 0 7.004-7.002 7.023 7.023 0 0 0-7.004-7.003z" fill="none" stroke="#f4861f" stroke-linecap="round" stroke-linejoin="round" stroke-width="3"/><path d="M221.361 379.93a4.57 4.57 0 1 0-4.57 4.57 4.57 4.57 0 0 0 4.57-4.57" fill="#f4861f"/><path d="M67.298 330.587l-5.123 34.07a6.54 6.54 0 0 0 6.496 6.548h42.425" fill="none" stroke="#0d3d59" stroke-linecap="round" stroke-miterlimit="10" stroke-width="3"/></g><path fill="none" stroke="#0d3d59" stroke-linecap="round" stroke-linejoin="round" stroke-width="3" d="M420.706 236.587h-40.537v-36.459l40.537 36.459zM316.966 326.414h24.459m-24.46-36.773h39.81m-39.81-36.773h80.704"/><g clip-path="url(#bla)"><path d="M420.706 236.163v51.428m-51.343 83.467h-72.097a2.321 2.321 0 0 1-2.32-2.31v-166.31a2.321 2.321 0 0 1 2.32-2.31h83.484" fill="none" stroke="#0d3d59" stroke-linecap="round" stroke-linejoin="round" stroke-width="3"/><path d="M429.071 343.565a10.345 10.345 0 1 0-10.345 10.267 10.307 10.307 0 0 0 10.345-10.267" fill="#0d3d59"/></g><path d="M380.604 344.723h7.653m3.851-27.572l4.831 4.79m22.944-16.211v7.598" fill="none" stroke="#f4861f" stroke-linecap="round" stroke-miterlimit="10" stroke-width="3"/><g clip-path="url(#bla)" fill="none" stroke-linecap="round" stroke-miterlimit="10" stroke-width="3"><path d="M437.136 320.173a32.098 32.098 0 0 1 11.551 24.55m8.161 0h-8.16" stroke="#0d3d59"/><path d="M387.806 344.722a31.832 31.832 0 0 1 35.845-31.592" stroke="#f4861f"/></g><path fill="none" stroke="#0d3d59" stroke-linecap="round" stroke-miterlimit="10" stroke-width="3" d="M446.021 316.473l-6.83 6.791M418.906 341.14l12.158-23.785M395.258 369.244h27.432m9.696 0h9.807"/><path fill="#0d3d59" d="M439.113 323.303l-18.412-8.714 1.564-.61 11.83-4.61 4.326 12.011.692 1.923z"/><path fill="none" stroke="#0d3d59" stroke-linecap="round" stroke-linejoin="round" stroke-width="3" d="M439.113 323.303l-18.412-8.714 1.564-.61 11.83-4.61 4.326 12.011.692 1.923z"/><g clip-path="url(#bla)" fill="none" stroke-linecap="round" stroke-width="3"><ellipse cx="418.726" cy="343.565" rx="56.191" ry="55.763" stroke="#0d3d59" stroke-miterlimit="10"/><path d="M223.855 56.622V6.355a4.848 4.848 0 0 0-4.811-4.855H52.276a4.848 4.848 0 0 0-4.811 4.855V109.18a4.847 4.847 0 0 0 4.81 4.854h28.75v50.378l71.335-50.378h13.88" stroke="#008ed0" stroke-linejoin="round"/></g><path fill="none" stroke="#e5e5e5" stroke-linecap="round" stroke-linejoin="round" stroke-width="7" d="M73.054 30.008h126.504M73.054 53.601h41.684"/><path fill="none" stroke="#fcecdc" stroke-linecap="round" stroke-linejoin="round" stroke-width="7" d="M130.772 53.601h29.136"/><path fill="none" stroke="#e5e5e5" stroke-linecap="round" stroke-linejoin="round" stroke-width="7" d="M73.054 80.708h77.82"/><g clip-path="url(#bla)"><path d="M173.03 59.235h120.114a4.233 4.233 0 0 1 4.2 4.24v73.513a4.233 4.233 0 0 1-4.2 4.24h-20.251v36.705l-51.973-36.706h-47.89a4.233 4.233 0 0 1-4.202-4.239V63.474a4.233 4.233 0 0 1 4.202-4.239" fill="#008ecf"/><path d="M173.03 59.235h120.114a4.233 4.233 0 0 1 4.2 4.24v73.513a4.233 4.233 0 0 1-4.2 4.24h-20.251v36.705l-51.973-36.706h-47.89a4.233 4.233 0 0 1-4.202-4.239V63.474a4.233 4.233 0 0 1 4.202-4.239z" fill="none" stroke="#008ed0" stroke-linecap="round" stroke-linejoin="round" stroke-width="3"/></g><path fill="none" stroke="#fcecdc" stroke-linecap="round" stroke-linejoin="round" stroke-width="7" d="M194.011 80.708h78.322M194.011 98.778h56.239M194.011 120.363h78.322"/><g clip-path="url(#bla)"><path d="M328.787 115.24l8.798 7.938m-1.92-18.162l-6.663 10.008m.023.1q.922-.211 1.849-.399a70.605 70.605 0 0 1 83.953 77.858" fill="none" stroke="#f4861f" stroke-linecap="round" stroke-linejoin="round" stroke-width="3"/></g></symbol><symbol viewBox="0 0 781.44702 551.69132" id="three-models"><title>three-models</title><path d="M360.311 325.011l18.12-10.88c-33.36-19.22-58.56-30.6-60.91-26.87-2.15 3.42 15.42 18.57 42.79 37.75z" fill="#0e3c58" opacity=".1" style="isolation:isolate"/><ellipse cx="238.478" cy="424.244" rx="10.284" ry="101.5" transform="rotate(-57.867 238.478 424.244)" fill="#0e3c58" opacity=".1" style="isolation:isolate"/><ellipse cx="313.478" cy="382.244" rx="10.284" ry="101.5" transform="rotate(-57.867 313.478 382.244)" fill="#0e3c58" opacity=".1" style="isolation:isolate"/><path d="M370.311 317.011c11.16 7.82 23.95 16.31 37.7 24.94 47.47 29.82 88.4 50.09 91.42 45.28s-33.01-32.88-80.48-62.7a947.849 947.849 0 0 0-30.52-18.4z" fill="#0e3c58" opacity=".1" style="isolation:isolate"/><path fill="#f4871e" d="M483.834 373.729l-50.97-31.049-27.016 15.974 49.971 30.048 28.015-14.973zM466.841 112.691v148l166 97v-149zm10 17l146 85v125l-146-87z"/><path fill="#009fe3" d="M339.841 335.691l-1 22 165 96 129-77v-19l-128 75-165-97z"/><path fill="#009fe3" opacity=".1" style="isolation:isolate" d="M622.841 339.691v-125l-146-85v123l146 87z"/><path fill="#009fe3" opacity=".1" style="isolation:isolate" d="M511.841 358.691v-126l-146-85v125l146 86z"/><path fill="#009fe3" opacity=".1" style="isolation:isolate" d="M268.841 182.691v125l146 86v-127l-146-84z"/><path fill="#009fe3" opacity=".1" style="isolation:isolate" d="M322.841 428.691v-126l-146-85v125l146 86z"/><g opacity=".7" fill="none" stroke="#f4871e" stroke-linecap="round" stroke-linejoin="round" stroke-width="4"><path d="M558.841 202.231v42l25 14.46 22 12.72v-42l-22-12.72-25-14.46zM605.841 315.628l-11.995-6.937-102.005-58.99M605.842 295.879l-11.996-6.938-102.005-58.99M544.168 240.462l-52.327-30.261M543.842 220.523l-52-30.072M544.168 200.962l-52.326-30.261"/></g><path d="M360.832 299.387c-.04 13.961-9.917 19.59-22.06 12.58-12.15-7.016-21.964-24.013-21.924-37.974.04-13.954 9.917-19.583 22.067-12.568 12.143 7.011 21.956 24.008 21.917 37.962zm-35.581-4.95c3.462 5.99 8.237 11.208 13.53 14.264s10.075 3.356 13.56 1.377c3.478-1.99 5.639-6.246 5.656-12.328s-2.112-12.815-5.568-18.8c-3.462-5.99-8.23-11.212-13.524-14.267s-10.081-3.352-13.566-1.374c-3.478 1.982-5.633 6.242-5.65 12.324s2.106 12.812 5.562 18.805" fill="#f4871e" opacity=".7"/><g opacity=".5" fill="none" stroke="#f4871e" stroke-linecap="round" stroke-linejoin="round" stroke-width="4"><path d="M386.841 184.231v42l82 44.46 22 12.72v-42l-22-12.72-82-44.46zM386.841 243.231l82 44.46 22 12.72M386.841 265.231l82 44.46 22 12.72"/></g><path fill="none" stroke="#0e3c58" stroke-linecap="round" stroke-linejoin="round" stroke-width="4" d="M632.841 357.691v-149l-166-96v147l166 98z"/><path fill="none" stroke="#0e3c58" stroke-linecap="round" stroke-linejoin="round" stroke-width="4" d="M622.841 214.46l-28.995-16.769-117.005-67.665v123.956l146 86.193V214.46zM632.841 357.691l18-11v-149"/><path fill="none" stroke="#0e3c58" stroke-linecap="round" stroke-linejoin="round" stroke-width="4" d="M466.841 112.691l18-11 166 96-18 11M467.841 260.691l-93.691 54.472-35.309 20.528 96.349 56.641 68.651 40.359 129-75v21l-129 75v-21"/><path fill="none" stroke="#0e3c58" stroke-linecap="round" stroke-linejoin="round" stroke-width="4" d="M503.841 453.691l-165-96v-22M393.841 304.691l96.349 56.641 67.651 39.359M405.491 358.781l50.76 29.83 27.37-15.91-50.76-29.84-17.71 10.3-9.66 5.62zM525.751 309.844l14.439 8.488 32.56 18.944M436.841 279.975l42.001 24.567M435.841 301.691l68.042 40M525.842 361.898l14.348 8.434 34.66 20.165"/><path d="M365.841 148.026l146 84.434v125.715l-146-86.193V148.026m0-4a4 4 0 0 0-4 4v123.956a4 4 0 0 0 1.967 3.445l146 86.193a4 4 0 0 0 6.033-3.445V232.46a4 4 0 0 0-1.997-3.463l-146-84.433a3.997 3.997 0 0 0-2.003-.538z" fill="#0e3c58"/><path d="M268.841 183.026l146 84.434v125.715l-146-86.193V183.026m0-4a4 4 0 0 0-4 4v123.956a4 4 0 0 0 1.967 3.445l146 86.193a4 4 0 0 0 6.033-3.445V267.46a4 4 0 0 0-1.997-3.463l-146-84.433a3.998 3.998 0 0 0-2.003-.538z" fill="#0e3c58"/><path d="M176.841 218.026l73 42.217 73 42.217v125.715l-146-86.193V218.026m0-4a4 4 0 0 0-4 4v123.956a4 4 0 0 0 1.967 3.445l146 86.193a4 4 0 0 0 6.033-3.445V302.46a4 4 0 0 0-1.997-3.463l-73-42.217-73-42.216a3.998 3.998 0 0 0-2.003-.538z" fill="#0e3c58"/><g opacity=".7" fill="none" stroke="#f4871e" stroke-linecap="round" stroke-linejoin="round" stroke-width="4"><path d="M142.841 308.241v55l30.177 17.45 15.823 9.15v-55l-46-26.6zM204.841 397.241l30.177 17.45 15.823 9.15M204.841 370.241l30.177 17.45 15.823 9.15M204.841 343.241l30.177 17.45 15.823 9.15"/></g><path d="M149.848 86.333a1.292 1.292 0 0 1-.023.053l.023-.053z" fill="#0e3c58"/><path d="M148.514 83.68a1.348 1.348 0 0 0-.304-.063q-.575-.053-1.141-.075a19.108 19.108 0 0 0-6.793.922q-.505.168-.996.364c-.667.267-.853 1.204-.424 2.09.03.059.06.116.094.171a2.149 2.149 0 0 0 1.122.956 1.14 1.14 0 0 0 .782-.004 17.222 17.222 0 0 1 7.95-1.086l.053.003a.964.964 0 0 0 .924-.489l.023-.041.019-.037a1.617 1.617 0 0 0 .101-.976 2.304 2.304 0 0 0-1.41-1.735zM173.471 105.29a1.22 1.22 0 0 1 .215-.496 1.21 1.21 0 0 0-.215.495zM176.993 116.533l-.01-.05a2.201 2.201 0 0 0 .079.331 2.238 2.238 0 0 1-.069-.28z" fill="#0e3c58"/><path d="M174.879 104.476a1.142 1.142 0 0 0-.785.005.94.94 0 0 0-.32.21.945.945 0 0 0-.087.103 1.22 1.22 0 0 0-.216.495 1.513 1.513 0 0 0-.02.127l-.003.032a2.429 2.429 0 0 0-.006.082 2.172 2.172 0 0 0 .228 1.033 38.321 38.321 0 0 1 3.314 9.92l.009.05a2.237 2.237 0 0 0 .069.281 2.5 2.5 0 0 0 .594.981l.05.049a1.89 1.89 0 0 0 .697.429 1.374 1.374 0 0 0 .298.063c.778.066 1.276-.625 1.105-1.548q-.122-.682-.27-1.362a42.643 42.643 0 0 0-2.83-8.509q-.3-.662-.62-1.315a2.177 2.177 0 0 0-1.207-1.126zM168.33 144.107q-.494.196-1.001.364l2.55 3.673a9.592 9.592 0 0 0 4.7 3.714 4.983 4.983 0 0 0 4.749-.625 5.752 5.752 0 0 0 1.95-4.636 10.642 10.642 0 0 0-1.968-5.91l-2.553-3.676q-.297.467-.615.911a1.022 1.022 0 0 1-1.205.337 1.932 1.932 0 0 1-.785-.517 2.452 2.452 0 0 1-.32-.42c.027.045.055.09.086.133l3.36 4.839a6.043 6.043 0 0 1 1.113 3.36 3.276 3.276 0 0 1-1.104 2.64 2.824 2.824 0 0 1-2.689.358 5.46 5.46 0 0 1-2.687-2.115l-3.283-4.736c.043.069.082.14.119.214.436.888.243 1.823-.418 2.092zM148.907 138.747l.067.04q-.043-.027-.087-.052z" fill="#0e3c58"/><g style="isolation:isolate" fill="#0e3c58"><path d="M153.778 98.821c-7.744-2.531-14.01 2.423-13.995 11.058l1.44.471 1.44.47c-.006-3.43 1.234-6.121 3.247-7.72a8.228 8.228 0 0 1 7.873-1.065 16.035 16.035 0 0 1 7.88 6.216 17.721 17.721 0 0 1 3.277 9.854c.006 3.438-1.234 6.13-3.247 7.728a8.242 8.242 0 0 1-7.867 1.067 16.079 16.079 0 0 1-7.886-6.218 17.725 17.725 0 0 1-3.277-9.861l-1.44-.471-1.44-.47c.015 8.642 6.305 17.702 14.048 20.234 7.737 2.53 14.003-2.425 13.988-11.068-.015-8.635-6.304-17.695-14.041-20.225zM158.819 87.009a1.015 1.015 0 0 0-1.27.442 1.276 1.276 0 0 0-.135.384 2.281 2.281 0 0 0 1.126 2.263 34.24 34.24 0 0 1 8.132 6.385 1.94 1.94 0 0 0 .782.511l.063.019.056.014.037.008.04.008.043.007.033.004.069.006.035.002h.045l.04-.001.031-.002.048-.005a.95.95 0 0 0 .504-.217.978.978 0 0 0 .164-.18 1.985 1.985 0 0 0-.425-2.36q-.492-.518-.998-1.016a38.613 38.613 0 0 0-6.804-5.368q-.656-.404-1.324-.775a1.652 1.652 0 0 0-.292-.13z"/><path d="M149.011 74.894a5.703 5.703 0 0 0-1.95 4.63l.008 4.018q.566.023 1.14.075a1.348 1.348 0 0 1 .305.063 2.304 2.304 0 0 1 1.41 1.735 1.646 1.646 0 0 1-.076.918 1.464 1.464 0 0 0 .109-.575l-.01-5.291a3.252 3.252 0 0 1 1.105-2.634 2.812 2.812 0 0 1 2.689-.365 5.482 5.482 0 0 1 2.687 2.123 6.043 6.043 0 0 1 1.114 3.36l.008 4.5a1.015 1.015 0 0 1 1.269-.442 1.652 1.652 0 0 1 .292.13q.668.37 1.324.774l-.007-4.02c-.007-4.118-3.002-8.432-6.693-9.639a4.946 4.946 0 0 0-4.724.64zM169.78 91.27l-2.541 2.011q.506.498.998 1.015a1.985 1.985 0 0 1 .425 2.36.977.977 0 0 1-.164.18l3.323-2.626a2.824 2.824 0 0 1 2.69-.358 5.46 5.46 0 0 1 2.686 2.115 6.047 6.047 0 0 1 1.115 3.367 3.27 3.27 0 0 1-1.104 2.634l-3.347 2.646a.976.976 0 0 0-.086.078.94.94 0 0 1 .32-.211 1.141 1.141 0 0 1 .784-.005 2.176 2.176 0 0 1 1.207 1.126q.32.653.62 1.315l2.542-2.01a5.712 5.712 0 0 0 1.943-4.631 10.575 10.575 0 0 0-1.961-5.916 9.58 9.58 0 0 0-4.725-3.73 4.943 4.943 0 0 0-4.724.64z"/></g><path d="M178.42 126.747a1.018 1.018 0 0 0-1.368.662 1.406 1.406 0 0 0-.04.156l-.008.038a19.93 19.93 0 0 1-3.284 7.776 1.398 1.398 0 0 0-.226.871 1.95 1.95 0 0 0 .01.135l.007.052.014.086a2.343 2.343 0 0 0 .217.638 2.594 2.594 0 0 0 .084.152 2.484 2.484 0 0 0 .326.429 1.932 1.932 0 0 0 .785.517 1.022 1.022 0 0 0 1.205-.337q.318-.444.615-.911a22.584 22.584 0 0 0 2.808-6.665q.147-.587.27-1.193a2.316 2.316 0 0 0-1.12-2.276 1.728 1.728 0 0 0-.186-.09 1.53 1.53 0 0 0-.109-.04z" fill="#0e3c58"/><path d="M177.012 127.565l.002-.01-.01.048zM177.03 127.488zM177.03 127.488q.01-.04.022-.079a1.369 1.369 0 0 0-.022.079zM178.7 118.336a1.372 1.372 0 0 1-.297-.063 1.89 1.89 0 0 1-.698-.43 1.873 1.873 0 0 0 .698.432l4.74 1.55a5.467 5.467 0 0 1 2.687 2.115 6.057 6.057 0 0 1 1.12 3.362 3.256 3.256 0 0 1-1.11 2.64 2.807 2.807 0 0 1-2.682.359l-4.629-1.513a1.735 1.735 0 0 1 .186.09 2.316 2.316 0 0 1 1.12 2.275q-.123.606-.27 1.193l3.598 1.176c3.69 1.2 6.674-1.16 6.667-5.279a10.657 10.657 0 0 0-1.967-5.91 9.612 9.612 0 0 0-4.725-3.73l-3.601-1.177q.147.68.27 1.362c.17.923-.328 1.614-1.106 1.548zM173.742 137.16a2.34 2.34 0 0 1-.217-.635 2.32 2.32 0 0 0 .217.636zM158.79 141.98l.049.003a1.09 1.09 0 0 0-.46.032 1.076 1.076 0 0 1 .412-.036zM158.379 142.015l-.054.018a.972.972 0 0 1 .054-.018z" fill="#0e3c58"/><path d="M167.535 140.888a1.145 1.145 0 0 0-.786.003 17.226 17.226 0 0 1-7.91 1.092l-.048-.004a1.057 1.057 0 0 0-.466.054 1.196 1.196 0 0 0-.113.05 1.209 1.209 0 0 0-.109.067 1.346 1.346 0 0 0-.424 1.368 2.304 2.304 0 0 0 1.41 1.735 1.348 1.348 0 0 0 .304.063q.575.053 1.14.074a19.176 19.176 0 0 0 6.796-.92q.507-.167 1-.363c.66-.269.854-1.204.418-2.092a2.506 2.506 0 0 0-.119-.214 2.118 2.118 0 0 0-1.093-.913zM158.096 142.155q-.032.023-.062.05a.928.928 0 0 1 .062-.05z" fill="#0e3c58"/><path d="M148.31 141.692q-.576-.324-1.142-.672l.007 4.02c.007 4.118 3.009 8.434 6.699 9.641a4.942 4.942 0 0 0 4.717-.642 5.723 5.723 0 0 0 1.95-4.63l-.007-4.018q-.566-.023-1.141-.075a1.348 1.348 0 0 1-.304-.063 2.304 2.304 0 0 1-1.41-1.735 1.386 1.386 0 0 1 .35-1.309 1.244 1.244 0 0 0-.383.966l.009 5.291a3.252 3.252 0 0 1-1.104 2.634 2.827 2.827 0 0 1-2.683.367 5.526 5.526 0 0 1-2.693-2.125 6.043 6.043 0 0 1-1.114-3.36l-.01-5.29a2.208 2.208 0 0 0-.271-1.025 2.084 2.084 0 0 1 .24 1.347 1.026 1.026 0 0 1-1.404.814 1.686 1.686 0 0 1-.306-.136zM130.263 101.99a.98.98 0 0 0 .105-.116.993.993 0 0 1-.105.116zM134.057 92.3l.019.087a2.2 2.2 0 0 0-.02-.086zM133.527 58.083a2.043 2.043 0 0 0 .354 1.915 2.086 2.086 0 0 1-.377-1.85z" fill="#0e3c58"/><path d="M136.342 47.94l-.036-.01a1.363 1.363 0 0 0-.2-.046c-.695-.104-1.223.409-1.204 1.221v.529a24.966 24.966 0 0 1-1.375 8.45l-.023.063a2.086 2.086 0 0 0 .377 1.85l.042.056a2.344 2.344 0 0 0 .25.275 2.163 2.163 0 0 0 .198.164 1.776 1.776 0 0 0 .493.258 1.017 1.017 0 0 0 1.353-.616q.199-.55.373-1.12a28.29 28.29 0 0 0 1.192-7.714q.007-.36.007-.723c0-.195 0-.39-.008-.588a2.3 2.3 0 0 0-1.439-2.048z" fill="#0e3c58"/><path d="M130.379 68.708q-.407.34-.833.654l3.063 3.128a8.908 8.908 0 0 0 3.53 2.275 4.74 4.74 0 0 0 5.668-1.655 6.375 6.375 0 0 0 1.005-3.607 9.044 9.044 0 0 0-.178-1.751 11.206 11.206 0 0 0-2.985-5.613l-3.06-3.125q-.174.569-.372 1.12a1.017 1.017 0 0 1-1.353.616 1.776 1.776 0 0 1-.493-.258 2.16 2.16 0 0 1-.197-.164l3.956 4.041a6.381 6.381 0 0 1 1.697 3.189 5.398 5.398 0 0 1 .106 1.004 3.61 3.61 0 0 1-.574 2.048 2.707 2.707 0 0 1-3.226.941 4.989 4.989 0 0 1-2.005-1.3l-3.94-4.016c.052.059.101.121.148.187a1.746 1.746 0 0 1 .043 2.286zM121.111 69.173a.99.99 0 0 1 .188-.056l.022-.004a.97.97 0 0 0-.21.06zM101.654 63.993zM101.72 63.945q-.034.022-.066.048a.956.956 0 0 1 .066-.048z" fill="#0e3c58"/><path d="M92.447 34.117a1.064 1.064 0 0 0-1.437 1.136c.022 12.443 9.073 25.473 20.215 29.116a1.062 1.062 0 0 0 1.437-1.136 2.295 2.295 0 0 0-1.443-2.078 24.89 24.89 0 0 1-12.24-9.652 27.488 27.488 0 0 1-5.09-15.308 2.302 2.302 0 0 0-1.442-2.078z" fill="#f4871e"/><path d="M107.982 25.574a13.194 13.194 0 0 1 3.19.63 19.52 19.52 0 0 1 8.65 6.171 23.49 23.49 0 0 1 5.01 10.4 18.854 18.854 0 0 1 .375 3.674 12.677 12.677 0 0 1-2.98 8.67 9.429 9.429 0 0 1-7.837 3.014 13.213 13.213 0 0 1-3.19-.638 19.502 19.502 0 0 1-8.65-6.163 23.527 23.527 0 0 1-5.01-10.399 18.85 18.85 0 0 1-.375-3.675 12.697 12.697 0 0 1 2.98-8.676 9.446 9.446 0 0 1 7.837-3.008zm-7.635 15.546a18.678 18.678 0 0 0 3.975 8.26 15.531 15.531 0 0 0 6.872 4.902 10.578 10.578 0 0 0 2.536.503 7.516 7.516 0 0 0 6.23-2.39 10.073 10.073 0 0 0 2.368-6.887 15.605 15.605 0 0 0-.297-2.926 18.728 18.728 0 0 0-3.98-8.254 15.531 15.531 0 0 0-6.873-4.902 10.237 10.237 0 0 0-2.536-.504 7.473 7.473 0 0 0-6.23 2.39 10.073 10.073 0 0 0-2.368 6.888 15.073 15.073 0 0 0 .303 2.92M129.339 65.648a1.157 1.157 0 0 0-.77-.004.96.96 0 0 0-.131.061l-.024.014-.034.022a.956.956 0 0 0-.075.055 15.48 15.48 0 0 1-6.984 3.317 1.082 1.082 0 0 0-.21.06 1.268 1.268 0 0 0-.605 1.517 2.278 2.278 0 0 0 .096.334 2.246 2.246 0 0 0 1.312 1.354 1.21 1.21 0 0 0 .61.048q.531-.104 1.048-.237a17.232 17.232 0 0 0 5.974-2.827q.426-.314.833-.654a1.746 1.746 0 0 0-.043-2.286 2.42 2.42 0 0 0-.148-.187 1.964 1.964 0 0 0-.85-.587z" fill="#0e3c58"/><g style="isolation:isolate" fill="#0e3c58"><path d="M134.11 123.738c.008-.024.014-.049.02-.074l-.02.074zM130.61 112.392l.008.047a2.185 2.185 0 0 0-.081-.339 2.21 2.21 0 0 1 .073.292z"/><path d="M129.2 110.66a1.372 1.372 0 0 0-.298-.063c-.778-.066-1.276.617-1.106 1.548q.122.682.27 1.362a42.643 42.643 0 0 0 2.831 8.508q.3.663.62 1.316a2.182 2.182 0 0 0 1.21 1.127 1.128 1.128 0 0 0 .781-.006 1.05 1.05 0 0 0 .621-.788l.008-.039a2.04 2.04 0 0 0-.205-1.255 38.279 38.279 0 0 1-3.314-9.931l-.008-.047a2.216 2.216 0 0 0-.073-.292l-.019-.054-.014-.04a2.796 2.796 0 0 0-.035-.089 2.453 2.453 0 0 0-.248-.451 2.686 2.686 0 0 0-.043-.061l-.042-.055-.033-.042a2.018 2.018 0 0 0-.903-.648zM128.275 77.7a5.747 5.747 0 0 0-1.95 4.629 10.646 10.646 0 0 0 1.968 5.917l2.552 3.676q.298-.467.616-.911a1.025 1.025 0 0 1 1.208-.337 1.913 1.913 0 0 1 .782.517 2.454 2.454 0 0 1 .606 1.11 2.42 2.42 0 0 0-.366-.821l-3.365-4.841a6.047 6.047 0 0 1-1.115-3.367 3.27 3.27 0 0 1 1.104-2.634 2.824 2.824 0 0 1 2.69-.358 5.445 5.445 0 0 1 2.687 2.116l3.258 4.693a2.51 2.51 0 0 1-.094-.171c-.43-.886-.243-1.823.424-2.09q.49-.196.996-.364l-2.552-3.675a9.535 9.535 0 0 0-4.7-3.714 4.964 4.964 0 0 0-4.749.624z"/><path d="M132.669 90.674a1.026 1.026 0 0 0-1.208.337q-.318.444-.616.911a22.433 22.433 0 0 0-2.805 6.666q-.145.584-.265 1.187a2.298 2.298 0 0 0 1.112 2.273 1.684 1.684 0 0 0 .298.132 1.052 1.052 0 0 0 1.075-.187.995.995 0 0 0 .108-.12.922.922 0 0 0 .067-.097 1.274 1.274 0 0 0 .156-.415l.01-.049a20.158 20.158 0 0 1 3.282-7.759 1.479 1.479 0 0 0 .203-1.108l-.01-.058a2.443 2.443 0 0 0-.625-1.196 1.913 1.913 0 0 0-.782-.517z"/><path d="M124.44 97.41c-3.69-1.206-6.675 1.153-6.668 5.272a10.66 10.66 0 0 0 1.968 5.917 9.644 9.644 0 0 0 4.725 3.73l3.6 1.178q-.146-.68-.269-1.362c-.17-.93.328-1.614 1.106-1.548a1.375 1.375 0 0 1 .298.063 2.013 2.013 0 0 1 .9.644 1.997 1.997 0 0 0-.9-.646l-4.74-1.55a5.466 5.466 0 0 1-2.688-2.116 6.106 6.106 0 0 1-1.12-3.368 3.274 3.274 0 0 1 1.11-2.632 2.807 2.807 0 0 1 2.683-.36l4.74 1.55a1.044 1.044 0 0 0 1.075-.189 1.052 1.052 0 0 1-1.075.187 1.683 1.683 0 0 1-.298-.132 2.298 2.298 0 0 1-1.112-2.273q.12-.603.265-1.187z"/></g><path d="M128.355 124.026a5.702 5.702 0 0 0-1.943 4.631 10.575 10.575 0 0 0 1.96 5.915 9.624 9.624 0 0 0 4.732 3.732 4.958 4.958 0 0 0 4.718-.642l2.542-2.01q-.506-.499-.998-1.016a1.986 1.986 0 0 1-.426-2.36.978.978 0 0 1 .934-.4 1.003 1.003 0 0 0-.746.194l-3.346 2.653a2.82 2.82 0 0 1-2.683.36 5.464 5.464 0 0 1-2.694-2.118 6.047 6.047 0 0 1-1.114-3.366 3.26 3.26 0 0 1 1.104-2.634l3.353-2.644a1.098 1.098 0 0 0 .363-.583 1.031 1.031 0 0 1-.603.714 1.128 1.128 0 0 1-.781.006 2.182 2.182 0 0 1-1.21-1.127q-.32-.653-.62-1.315zM130.6 101.312l-.01.049a1.27 1.27 0 0 1-.152.41 1.288 1.288 0 0 0 .163-.459z" fill="#0e3c58"/><path d="M135.066 106.73a1.067 1.067 0 0 0-1.444 1.135c.028 12.445 9.073 25.473 20.221 29.125a1.068 1.068 0 0 0 1.437-1.143 2.31 2.31 0 0 0-1.442-2.078 24.857 24.857 0 0 1-12.241-9.653 27.47 27.47 0 0 1-5.089-15.308 2.31 2.31 0 0 0-1.442-2.077z" fill="#f4871e"/><path d="M140.151 131.936a1.362 1.362 0 0 0-.277-.06.978.978 0 0 0-.934.4 1.986 1.986 0 0 0 .426 2.36q.492.517.998 1.016a38.498 38.498 0 0 0 6.804 5.368q.566.348 1.142.672a1.685 1.685 0 0 0 .306.136 1.026 1.026 0 0 0 1.404-.814 2.084 2.084 0 0 0-.24-1.347l-.033-.058-.023-.04a2.316 2.316 0 0 0-.689-.743l-.061-.04a1.847 1.847 0 0 0-.067-.039 34.606 34.606 0 0 1-7.976-6.297 1.917 1.917 0 0 0-.78-.514z" fill="#0e3c58"/><g style="isolation:isolate" fill="#0e3c58"><path d="M94.072 17.9a.99.99 0 0 1-.753.22.983.983 0 0 0 .83-.283l-.077.063zM101.086 14.587l-.016.004.015-.003z"/><path d="M101.085 14.588l-.015.003-.016.003.02-.004z"/><path d="M100.459 11.322a1.21 1.21 0 0 0-.61-.048q-.533.104-1.05.238a17.234 17.234 0 0 0-5.974 2.827q-.426.314-.832.653a1.756 1.756 0 0 0 .043 2.293c.047.066.096.128.147.186a1.958 1.958 0 0 0 .847.587 1.423 1.423 0 0 0 .176.045c.037.006.056.01.075.012l.032.004a.994.994 0 0 0 .76-.219l.076-.063a15.437 15.437 0 0 1 6.905-3.243 1.143 1.143 0 0 0 .15-.038l.054-.02a1.283 1.283 0 0 0 .6-1.561 2.325 2.325 0 0 0-.088-.298 2.246 2.246 0 0 0-1.311-1.355z"/></g><path d="M111.154 12.164a25.695 25.695 0 0 0-.7-.215 1.017 1.017 0 0 0-1.355.743 1.61 1.61 0 0 0-.05.448 2.307 2.307 0 0 0 1.435 2.032l.047.015.133.04.055.016c.148.046.295.094.441.142a29.003 29.003 0 0 1 7.976 4.155l.075.055a1.754 1.754 0 0 0 .49.257 1.011 1.011 0 0 0 1.35-.618 2.216 2.216 0 0 0-.866-2.345q-.55-.401-1.11-.78a32.356 32.356 0 0 0-7.266-3.722q-.327-.115-.655-.223z" fill="#0e3c58"/><path d="M110.675 15.23c.015.005.03.01.044.013l-.055-.016zM98.802 1.976a6.392 6.392 0 0 0-1.005 3.607 9.214 9.214 0 0 0 .178 1.75l.824 4.179q.518-.133 1.05-.238a1.21 1.21 0 0 1 .61.048 2.246 2.246 0 0 1 1.31 1.355 2.33 2.33 0 0 1 .088.298l-1.075-5.447a5.477 5.477 0 0 1-.099-1.002 3.61 3.61 0 0 1 .574-2.047 2.526 2.526 0 0 1 2.357-1.118 3.689 3.689 0 0 1 .862.174 5.283 5.283 0 0 1 2.35 1.672 6.353 6.353 0 0 1 1.353 2.815l.92 4.67a1.017 1.017 0 0 1 1.355-.743c.233.07.467.139.7.215q.328.107.655.224l-.823-4.179a11.262 11.262 0 0 0-2.388-4.954 9.329 9.329 0 0 0-4.127-2.942 6.307 6.307 0 0 0-1.517-.3 4.487 4.487 0 0 0-4.152 1.963zM128.602 25.726a1.066 1.066 0 0 0-1.038.152.991.991 0 0 0-.13.133 1.87 1.87 0 0 0 .172 2.16 40.383 40.383 0 0 1 5.04 9.468 2.233 2.233 0 0 0 1.305 1.353 1.303 1.303 0 0 0 .387.067 1.076 1.076 0 0 0 .223-.02c.719-.14 1.028-.994.69-1.908q-.25-.679-.523-1.348a45.32 45.32 0 0 0-4.297-8.081q-.407-.609-.831-1.202a2.046 2.046 0 0 0-.998-.774z" fill="#0e3c58"/><path d="M126.638 11.656a6.186 6.186 0 0 0-1.517-.3 4.479 4.479 0 0 0-4.151 1.963l-1.894 2.79q.559.378 1.11.78a2.216 2.216 0 0 1 .865 2.345 1.011 1.011 0 0 1-1.35.618 1.754 1.754 0 0 1-.49-.257l-.075-.055a1.797 1.797 0 0 0 .562.313 1.025 1.025 0 0 0 1.224-.357l2.502-3.675a2.516 2.516 0 0 1 2.357-1.117 3.606 3.606 0 0 1 .863.174 5.024 5.024 0 0 1 2.005 1.292 6.256 6.256 0 0 1 1.802 4.2 3.643 3.643 0 0 1-.573 2.04l-2.444 3.601a.991.991 0 0 1 .13-.133 1.066 1.066 0 0 1 1.039-.152 2.046 2.046 0 0 1 .997.774q.424.593.831 1.202l1.895-2.792a6.368 6.368 0 0 0 1.005-3.6 10.959 10.959 0 0 0-3.156-7.369 8.956 8.956 0 0 0-3.537-2.285zM141.758 40.836a6.39 6.39 0 0 1 1.697 3.188 5.02 5.02 0 0 1 .106 1.004 3.434 3.434 0 0 1-.813 2.346 2.548 2.548 0 0 1-2.124.817l-4.518-.307a1.364 1.364 0 0 1 .2.046 2.305 2.305 0 0 1 1.475 2.059c.007.198.007.393.008.588q0 .364-.007.723l3.502.24a4.495 4.495 0 0 0 3.737-1.44 6.027 6.027 0 0 0 1.42-4.13 9.215 9.215 0 0 0-.179-1.752 11.243 11.243 0 0 0-2.984-5.613 8.913 8.913 0 0 0-3.53-2.283 5.973 5.973 0 0 0-1.518-.3l-3.502-.239q.272.669.523 1.348c.338.913.029 1.767-.69 1.908a1.076 1.076 0 0 1-.223.02l4.553.304a3.69 3.69 0 0 1 .862.173 5.065 5.065 0 0 1 2.005 1.3zM102.676 63.852a1.155 1.155 0 0 0-.766-.004.885.885 0 0 0-.065.027l-.027.013-.04.021a.973.973 0 0 0-.043.026 1.051 1.051 0 0 0-.414.538 2.205 2.205 0 0 0 .866 2.338q.551.404 1.112.784a32.134 32.134 0 0 0 7.263 3.717q.324.115.65.222c.174.057.35.114.524.165.798.246 1.426-.28 1.411-1.174a2.008 2.008 0 0 0-.03-.302 2.304 2.304 0 0 0-1.42-1.75c-.18-.051-.336-.102-.491-.153a28.87 28.87 0 0 1-8.045-4.215 1.769 1.769 0 0 0-.485-.253z" fill="#0e3c58"/><path d="M111.211 71.534q-.325-.106-.65-.222l.825 4.179a11.187 11.187 0 0 0 2.388 4.954 9.272 9.272 0 0 0 4.127 2.942 5.973 5.973 0 0 0 1.517.3 4.472 4.472 0 0 0 4.152-1.963 6.392 6.392 0 0 0 1.005-3.607 9.33 9.33 0 0 0-.178-1.75l-.825-4.178q-.517.133-1.049.237a1.21 1.21 0 0 1-.61-.048 2.246 2.246 0 0 1-1.31-1.354 2.277 2.277 0 0 1-.097-.334l1.084 5.489a5.462 5.462 0 0 1 .099.995 3.635 3.635 0 0 1-.574 2.055 2.541 2.541 0 0 1-2.357 1.117 3.692 3.692 0 0 1-.862-.173 5.34 5.34 0 0 1-2.35-1.673 6.354 6.354 0 0 1-1.353-2.815l-1.076-5.462a2.008 2.008 0 0 1 .03.302c.015.894-.613 1.42-1.41 1.173-.176-.05-.35-.107-.526-.164zM90.046 58.797a6.335 6.335 0 0 0-1.005 3.6 10.959 10.959 0 0 0 3.156 7.37 8.877 8.877 0 0 0 3.502 2.265 6.653 6.653 0 0 0 1.552.32 4.509 4.509 0 0 0 4.151-1.963l1.897-2.794q-.56-.38-1.112-.784a2.205 2.205 0 0 1-.866-2.338 1.089 1.089 0 0 1 .274-.429.994.994 0 0 0-.145.168l-2.502 3.674a2.546 2.546 0 0 1-2.357 1.117 3.61 3.61 0 0 1-.863-.173 4.968 4.968 0 0 1-2.005-1.3 6.226 6.226 0 0 1-1.802-4.192 3.667 3.667 0 0 1 .573-2.048l2.475-3.639a.98.98 0 0 1-.16.171 1.054 1.054 0 0 1-1.036.155 2.056 2.056 0 0 1-1-.777q-.424-.591-.83-1.198zM77.35 33.6a6.033 6.033 0 0 0-1.418 4.138 9.271 9.271 0 0 0 .178 1.751 11.304 11.304 0 0 0 2.984 5.613 8.914 8.914 0 0 0 3.53 2.283 6.305 6.305 0 0 0 1.518.3l3.504.239q-.273-.669-.525-1.347c-.338-.914-.029-1.768.69-1.909a1.074 1.074 0 0 1 .223-.02l-4.553-.31a3.34 3.34 0 0 1-.862-.167 5.064 5.064 0 0 1-2.005-1.3 6.412 6.412 0 0 1-1.697-3.195 4.952 4.952 0 0 1-.106-.996 3.408 3.408 0 0 1 .813-2.346 2.549 2.549 0 0 1 2.124-.818l4.529.301a1.374 1.374 0 0 1-.218-.049 2.304 2.304 0 0 1-1.468-2.057c-.007-.198-.007-.386-.008-.581q0-.367.008-.73l-3.503-.232a4.49 4.49 0 0 0-3.737 1.433zM88.632 44.802a1.875 1.875 0 0 1 .235.138 1.844 1.844 0 0 0-.235-.138z" fill="#0e3c58"/><path d="M88.421 44.716a1.305 1.305 0 0 0-.387-.067 1.075 1.075 0 0 0-.222.02c-.72.14-1.03.994-.69 1.908q.25.678.524 1.347a45.422 45.422 0 0 0 4.297 8.078q.406.607.83 1.198a2.056 2.056 0 0 0 1 .777 1.054 1.054 0 0 0 1.035-.155.979.979 0 0 0 .161-.17 1.89 1.89 0 0 0-.203-2.116 40.386 40.386 0 0 1-5.032-9.445 2.571 2.571 0 0 0-.11-.262l-.03-.057-.018-.035a2.456 2.456 0 0 0-.359-.495l-.046-.047-.046-.045-.045-.041a2.426 2.426 0 0 0-.163-.134l-.047-.033a1.886 1.886 0 0 0-.238-.14l-.043-.02-.032-.014a1.722 1.722 0 0 0-.136-.052z" fill="#0e3c58"/><path d="M88.917 44.975a2.1 2.1 0 0 1 .126.1q-.062-.052-.126-.1zM89.726 46.068l.008.023a2.38 2.38 0 0 0-.11-.262 2.39 2.39 0 0 1 .102.24zM87.509 22.957a1.017 1.017 0 0 0-1.354.616q-.198.551-.373 1.12a28.286 28.286 0 0 0-1.191 7.707q-.008.363-.008.73c0 .195.001.384.008.581a2.298 2.298 0 0 0 1.433 2.046l.035.011a1.373 1.373 0 0 0 .218.05c.692.095 1.212-.416 1.193-1.223v-.521a24.944 24.944 0 0 1 1.39-8.494 2.223 2.223 0 0 0-.858-2.365 1.776 1.776 0 0 0-.493-.258z" fill="#0e3c58"/><path d="M80.565 10.597a6.375 6.375 0 0 0-1.005 3.607 9.098 9.098 0 0 0 .178 1.751 11.264 11.264 0 0 0 2.985 5.614l3.06 3.124q.174-.569.372-1.12a1.017 1.017 0 0 1 1.354-.616 1.776 1.776 0 0 1 .493.258 2.221 2.221 0 0 1 .866 2.345 2.146 2.146 0 0 0-.594-2.111l-4.032-4.111a6.374 6.374 0 0 1-1.697-3.196 4.796 4.796 0 0 1-.106-.996 3.61 3.61 0 0 1 .574-2.048 2.698 2.698 0 0 1 3.226-.942 5.045 5.045 0 0 1 2.005 1.292l3.94 4.023c-.052-.058-.101-.12-.148-.186a1.756 1.756 0 0 1-.043-2.293q.406-.34.832-.653l-3.062-3.121a8.93 8.93 0 0 0-3.53-2.283 4.748 4.748 0 0 0-5.668 1.662z" fill="#0e3c58"/><path d="M9.81 225.492l44.95 26.23a5.525 5.525 0 0 1 2.74 4.772v29.023a5.525 5.525 0 0 1-8.246 4.81l-10.004-5.66v21.059l-21.194-33.05-13.751-7.78a5.525 5.525 0 0 1-2.805-4.809v-29.823a5.525 5.525 0 0 1 8.31-4.772z" fill="none" stroke="#f4871e" stroke-linecap="round" stroke-linejoin="round" stroke-width="3"/><path fill="none" stroke="#0e3c58" stroke-linecap="round" stroke-linejoin="round" stroke-width="3" d="M18.153 247.05l-9.46-5.412M49.928 265.228l-25.826-14.775M29.222 265.382L8.693 253.638M49.928 277.228l-14.32-8.192M366.213 481.016l-9.46-5.412M397.988 499.193l-25.827-14.774M377.282 499.348l-20.529-11.744M397.988 511.193l-14.32-8.192"/><path d="M357.87 459.457l44.949 26.23a5.525 5.525 0 0 1 2.74 4.772v29.024a5.525 5.525 0 0 1-8.246 4.809l-10.004-5.66-.227-.129-18.19 10.313v-20.604l-2.776-1.57-13.752-7.78a5.525 5.525 0 0 1-2.805-4.81V464.23a5.525 5.525 0 0 1 8.31-4.773z" fill="none" stroke="#f4871e" stroke-linecap="round" stroke-linejoin="round" stroke-width="3"/><g opacity=".5" fill="#0e3c58"><path d="M300.893 271.264c0-3.233 1.867-5.766 4.25-5.766s4.25 2.533 4.25 5.766-1.867 5.766-4.25 5.766-4.25-2.533-4.25-5.766zm3 0c0 1.716.81 2.766 1.25 2.766s1.25-1.05 1.25-2.766-.81-2.766-1.25-2.766-1.25 1.05-1.25 2.766z"/><path d="M301.281 268.831l-36.44-21.53v3.48l36.1 21.32.64.38a1.503 1.503 0 0 0 .76.21 1.5 1.5 0 0 0 .76-2.79z"/></g><ellipse cx="305.143" cy="268.264" rx="2.75" ry="4.266" fill="none" stroke="#f4871e" stroke-linecap="round" stroke-linejoin="round" stroke-width="3"/><path fill="none" stroke="#f4871e" stroke-linecap="round" stroke-linejoin="round" stroke-width="3" d="M302.341 268.191l-149-88v-12"/><ellipse cx="223.143" cy="424.264" rx="2.75" ry="4.266" fill="none" stroke="#f4871e" stroke-linecap="round" stroke-linejoin="round" stroke-width="3"/><ellipse cx="159.143" cy="388.264" rx="2.75" ry="4.266" fill="none" stroke="#f4871e" stroke-linecap="round" stroke-linejoin="round" stroke-width="3"/><path fill="none" stroke="#f4871e" stroke-linecap="round" stroke-linejoin="round" stroke-width="3" d="M159.341 392.191v26l-122-71v-32M223.341 428.191v41l144 81v-12"/><g opacity=".5" fill="#0e3c58"><path d="M492.893 293.265c0-3.234 1.866-5.767 4.25-5.767s4.25 2.533 4.25 5.767-1.867 5.765-4.25 5.765-4.25-2.532-4.25-5.765zm3 0c0 1.715.809 2.765 1.25 2.765s1.25-1.05 1.25-2.765-.81-2.767-1.25-2.767-1.25 1.05-1.25 2.767z"/><path d="M499.601 294.491l1.51.85 14.73 8.35v-3.43l-14.55-8.25-.21-.12a1.496 1.496 0 1 0-1.48 2.6z"/></g><ellipse cx="497.143" cy="290.264" rx="2.75" ry="4.266" fill="none" stroke="#f4871e" stroke-linecap="round" stroke-linejoin="round" stroke-width="3"/><path fill="none" stroke="#f4871e" stroke-linecap="round" stroke-linejoin="round" stroke-width="3" d="M500.341 290.191l240 136v-15M702.74 333.49c.28-26.664 17.79-40.671 39.109-31.288s38.375 38.607 38.095 65.27-17.79 40.672-39.11 31.288-38.375-38.606-38.095-65.27z"/><path d="M736.107 348.177c.038-3.615 2.412-5.515 5.303-4.242s5.204 5.235 5.166 8.85-2.413 5.515-5.303 4.242-5.204-5.234-5.166-8.85zM741.668 319.386c13.731 6.044 24.716 24.865 24.536 42.038" fill="none" stroke="#f4871e" stroke-linecap="round" stroke-linejoin="round" stroke-width="3"/><path d="M716.479 339.538c.18-17.173 11.458-26.195 25.19-20.152" fill="none" stroke="#0e3c58" stroke-linecap="round" stroke-linejoin="round" stroke-width="3"/><path fill="none" stroke="#f4871e" stroke-linecap="round" stroke-linejoin="round" stroke-width="3" d="M741.771 309.567l-.103 9.819M764.778 331.732l-5.625 4.5M774.055 364.88l-7.851-3.456"/><path fill="none" stroke="#0e3c58" stroke-linecap="round" stroke-linejoin="round" stroke-width="3" d="M708.628 336.082l7.851 3.456M718.513 311.369l5.479 9.387"/><path fill="none" stroke="#f4871e" stroke-linecap="round" stroke-linejoin="round" stroke-width="3" d="M738.126 339.226l-9.15-32.035-2.509 6.439M741.341 350.481l-12.365-43.29 5.972 5.683M727.197 367.273l-7.033-3.096M762.037 382.608l-27.317-12.023"/><path d="M242.698 329.297l.045-14.535-1.892 2.231-1.365-3.401 3.58-4.136 2.102 1.299-.062 20.03zM330.262 294.123l.01-3.058c4.223-2.915 5.462-4.01 5.469-6.248a4.03 4.03 0 0 0-1.657-3.403 1.897 1.897 0 0 0-2.764.398l-1.24-3.337c1.007-1.43 2.535-1.414 3.968-.53 2.204 1.362 3.923 4.613 3.912 8.243-.01 3.113-1.467 4.92-4.143 6.711l4.191 2.59-.01 3.412zM425.729 238.465l1.281-2.068a9.079 9.079 0 0 0 3.096 4.2c1.373.848 2.138.268 2.143-1.234a4.078 4.078 0 0 0-2.264-3.715c-.475-.294-1.239-.735-1.408-.81l.012-3.844c.204.156.983.639 1.407.9 1.254.776 2.104.638 2.11-.834a4.376 4.376 0 0 0-2.096-3.67 2.088 2.088 0 0 0-2.888.292l-1.196-3.417c.922-1.266 2.35-1.738 4.333-.512a9.423 9.423 0 0 1 4.255 8.075c-.008 2.522-1.234 3.419-2.488 3.035a8.8 8.8 0 0 1 2.628 6.439c-.01 3.453-1.763 4.806-4.476 3.13a11.737 11.737 0 0 1-4.45-5.967z" fill="#0d3d59"/><g opacity=".5" fill="#999"><path d="M252.144 329.297l.045-14.535-1.892 2.231-1.366-3.401 3.58-4.136 2.102 1.299-.061 20.03zM339.708 294.123l.01-3.058c4.223-2.915 5.462-4.01 5.469-6.248a4.03 4.03 0 0 0-1.657-3.403 1.897 1.897 0 0 0-2.765.397l-1.24-3.336c1.008-1.43 2.536-1.415 3.969-.53 2.203 1.362 3.923 4.613 3.911 8.243-.01 3.113-1.466 4.92-4.143 6.711l4.192 2.59-.01 3.412zM435.175 238.465l1.28-2.068a9.079 9.079 0 0 0 3.096 4.2c1.373.848 2.14.268 2.144-1.234a4.078 4.078 0 0 0-2.265-3.715c-.474-.294-1.238-.735-1.407-.81l.012-3.844c.204.156.983.639 1.407.9 1.254.776 2.104.638 2.11-.834a4.376 4.376 0 0 0-2.096-3.67 2.088 2.088 0 0 0-2.888.292l-1.196-3.417c.922-1.266 2.35-1.738 4.333-.512a9.423 9.423 0 0 1 4.255 8.075c-.008 2.522-1.234 3.419-2.489 3.035a8.8 8.8 0 0 1 2.63 6.439c-.01 3.453-1.764 4.806-4.477 3.13a11.737 11.737 0 0 1-4.45-5.967z" opacity=".6" style="isolation:isolate"/></g><path fill="none" d="M207.606 197.128h288.228v192.563H207.606z"/><path fill="none" d="M207.606 197.128h288.228v192.563H207.606z"/></symbol><symbol viewBox="0 0 226.298 206.76801" id="transform"><title>transform</title><path d="M112.88 206.768a1.328 1.328 0 0 1-.764-.242l-25.373-17.829H63.467a3.417 3.417 0 0 1-3.41-3.418v-9.971h-6.4l-34.954 24.561a1.33 1.33 0 0 1-2.096-1.089v-23.472H3.712A3.72 3.72 0 0 1 0 171.588v-50.625a3.72 3.72 0 0 1 3.712-3.72h82.52a3.72 3.72 0 0 1 3.712 3.72v24.706h32.958a3.417 3.417 0 0 1 3.409 3.417v36.193a3.417 3.417 0 0 1-3.41 3.418h-8.69v16.74a1.33 1.33 0 0 1-1.33 1.332zm-49.413-58.437a.761.761 0 0 0-.747.755v36.193a.762.762 0 0 0 .747.756h23.697a1.33 1.33 0 0 1 .765.242l23.62 16.598v-15.509a1.331 1.331 0 0 1 1.332-1.33h10.02a.762.762 0 0 0 .748-.757v-36.193a.761.761 0 0 0-.747-.755zM3.712 119.904a1.056 1.056 0 0 0-1.05 1.06v50.623a1.055 1.055 0 0 0 1.05 1.059h14.226a1.331 1.331 0 0 1 1.331 1.331v22.241l33.202-23.33a1.33 1.33 0 0 1 .765-.242h6.822v-23.56a3.417 3.417 0 0 1 3.409-3.417h23.815v-24.706a1.069 1.069 0 0 0-1.05-1.059z" fill="#008fd1"/><path d="M218.513 187.186a3.37 3.37 0 0 1-1.765-.5l-63.749-39.097-.022-.013-2.885-1.77a7.68 7.68 0 0 1-3.123-9.31l-6.16-3.778a1.331 1.331 0 0 1 1.392-2.27l6.148 3.771a7.582 7.582 0 0 1 9.665-1.468l1.752 1.075.016.01 2.309 1.415.013.01 49.827 30.557 6.264-9.923-23.134-14.388a1.331 1.331 0 0 1 1.406-2.26l24.272 15.095a1.331 1.331 0 0 1 .422 1.84l-6.96 11.028 10.467 6.42a3.427 3.427 0 0 1 1.134 4.687l-4.377 7.227a3.378 3.378 0 0 1-2.103 1.545 3.438 3.438 0 0 1-.809.097zm-65.273-42.572l.01.007 64.889 39.794a.73.73 0 0 0 1.008-.249l4.378-7.229a.759.759 0 0 0-.249-1.039l-11.266-6.91a1.322 1.322 0 0 1-.4-.168 1.337 1.337 0 0 1-.302-.261l-54.686-33.538a4.92 4.92 0 0 0-6.788 1.662 5.01 5.01 0 0 0 1.65 6.854z" fill="#f5871f"/><path d="M149.087 121.596H96.913a1.5 1.5 0 0 1 0-3h52.174a1.5 1.5 0 0 1 0 3zm0-15.555H68.291a1.5 1.5 0 0 1 0-3h80.794a1.5 1.5 0 0 1 0 3zm0-16.205h-48.76a1.5 1.5 0 0 1 0-3h48.76a1.5 1.5 0 0 1 0 3zm-60.849 0H68.291a1.5 1.5 0 0 1 0-3h19.947a1.5 1.5 0 0 1 0 3zm60.848-16.203H68.291a1.5 1.5 0 1 1 0-3h80.795a1.5 1.5 0 0 1 0 3zm0-15.556H129.14a1.5 1.5 0 1 1 0-3h19.947a1.5 1.5 0 0 1 0 3zm-32.036 0H68.292a1.5 1.5 0 0 1 0-3h48.758a1.5 1.5 0 0 1 0 3zm-5.258-16.204h-43.5a1.5 1.5 0 0 1 0-3h43.5a1.5 1.5 0 0 1 0 3zM98.862 25.669H68.291a1.5 1.5 0 0 1 0-3h30.572a1.5 1.5 0 0 1 0 3z" fill="#0d3d59"/><path d="M172.497 160.769h-46.172a1.5 1.5 0 0 1 0-3h46.172a1.5 1.5 0 0 1 0 3zm1.263-16.445a1.5 1.5 0 0 1-1.5-1.5V3.054L51.327 3l-.057 114.338a1.5 1.5 0 0 1-3 0V3.054A3.059 3.059 0 0 1 51.327 0h120.876a3.059 3.059 0 0 1 3.057 3.054v139.77a1.5 1.5 0 0 1-1.5 1.5z" fill="#0d3d59"/></symbol><symbol viewBox="0 0 174.68953 159.36569" id="tweet"><title>tweet</title><path d="M56.586 93.245a27.015 27.015 0 0 1 14.278-25.433c.93-.465 11.554-5.844 23.176 2.523a5.317 5.317 0 0 0 5.18.465c3.187-1.195 12.218-4.656 13.015-5.117 0 0-2.723 8.37-8.766 13.285l10.028-3.055s-.266 6.707-8.633 11.754c0 0 1.265 27.244-16.535 48.012C86.07 138.335 59.242 173.797 2 148.031c0 0 19.922-.664 30.945-10.89 0 0-22.18 1.327-25.5-15.54 0 0 5.578 3.453 16.868 1.195 0 0-19.524-8.101-20.72-23.11a18.783 18.783 0 0 0 13.415 3.056s-18.063-13.68-7.836-33.07c0 0 12.352 18.726 47.414 23.573zM168.69 2h-57.634a4.012 4.012 0 0 0-4 4v33.295a4.012 4.012 0 0 0 4 4h11.133v13l16.573-13h29.927a4.012 4.012 0 0 0 4-4V6a4.012 4.012 0 0 0-4-4z" fill="none" stroke="#0e3c58" stroke-linecap="round" stroke-linejoin="round" stroke-width="4"/></symbol><symbol viewBox="0 0 15 12.256" id="twitter"><defs><clipPath id="bpa"><path fill="none" d="M0 0h15v12.256H0z"/></clipPath></defs><title>twitter</title><g clip-path="url(#bpa)"><path d="M13.39 1.884A3.42 3.42 0 0 0 14.631.228 9.082 9.082 0 0 1 12.7.964 3.17 3.17 0 0 0 7.315 3.77 8.703 8.703 0 0 1 1.012.55 3.118 3.118 0 0 0 .598 1.7 3.61 3.61 0 0 0 1.84 4.69a5.986 5.986 0 0 1-1.288-.367A3.177 3.177 0 0 0 2.99 7.406a3.577 3.577 0 0 1-1.334 0A2.959 2.959 0 0 0 4.51 9.569 6.47 6.47 0 0 1 0 10.903a8.922 8.922 0 0 0 5.43 1.334c4.806-.273 8.141-4.407 8.097-9.202A4.956 4.956 0 0 0 15 1.424a4.263 4.263 0 0 1-1.61.46" fill="#565759"/></g></symbol><symbol viewBox="0 0 512 512" id="twitter-circle"><path d="M256 0C114.609 0 0 114.609 0 256c0 141.392 114.609 256 256 256 141.392 0 256-114.608 256-256C512 114.609 397.392 0 256 0zm0 472c-119.297 0-216-96.702-216-216 0-119.297 96.703-216 216-216 119.298 0 216 96.703 216 216 0 119.298-96.702 216-216 216z"/><path d="M384 170.922c-4.312 2.562-17.248 7.671-29.312 8.953 7.735-4.491 19.188-19.203 22.016-30.89-7.436 5.109-24.516 12.562-32.95 12.562 0 0 0 .023.016.039C334.141 150.75 320.608 144 305.577 144c-29.154 0-52.81 25.461-52.81 56.875 0 4.36.481 8.595 1.357 12.672h-.017c-39.562-1.094-85.811-22.446-111.874-59-16 29.852-2.156 63.046 16.015 75.141-6.203.516-17.671-.766-23.061-6.407-.375 19.797 8.484 46.048 40.735 55.562-6.221 3.61-17.19 2.579-21.984 1.781 1.687 16.75 23.437 38.623 47.202 38.623-8.47 10.534-37.373 29.706-73.141 23.596C152.298 358.782 180.625 368 210.608 368c85.205 0 151.376-74.359 147.814-166.093 0-.11-.031-.219-.031-.313 0-.25.031-.5.031-.719 0-.281-.031-.562-.031-.859 7.75-5.688 18.155-15.782 25.609-29.094z"/></symbol></svg>